<svg width="20" height="20" viewBox="0 0 20 20" fill="none" xmlns="http://www.w3.org/2000/svg">
<path d="M17.2031 5.90271H15.6441V1.45763C15.6441 1.33626 15.5959 1.21986 15.51 1.13404C15.4242 1.04821 15.3078 1 15.1864 1H4.81356C4.69219 1 4.57579 1.04821 4.48997 1.13404C4.40415 1.21986 4.35593 1.33626 4.35593 1.45763V5.90271H2.79695C2.32037 5.90271 1.86331 6.09203 1.52631 6.42903C1.18932 6.76602 1 7.22308 1 7.69966V14.3047C1 14.5407 1.04648 14.7744 1.13678 14.9924C1.22709 15.2104 1.35945 15.4085 1.52631 15.5754C1.69318 15.7422 1.89127 15.8746 2.10929 15.9649C2.3273 16.0552 2.56097 16.1017 2.79695 16.1017H4.35593V18.5424C4.35593 18.6637 4.40415 18.7801 4.48997 18.866C4.57579 18.9518 4.69219 19 4.81356 19H15.1864C15.3078 19 15.4242 18.9518 15.51 18.866C15.5959 18.7801 15.6441 18.6637 15.6441 18.5424V16.1017H17.2031C17.439 16.1017 17.6727 16.0552 17.8907 15.9649C18.1087 15.8746 18.3068 15.7422 18.4737 15.5754C18.6405 15.4085 18.7729 15.2104 18.8632 14.9924C18.9535 14.7744 19 14.5407 19 14.3047V7.69966C19 7.22308 18.8107 6.76602 18.4737 6.42903C18.1367 6.09203 17.6796 5.90271 17.2031 5.90271ZM5.27119 1.91525H14.7288V5.90271H5.27119V1.91525ZM14.7288 18.0847H5.27119V14.1064H14.7288V18.0847ZM18.0847 14.2925C18.086 14.4092 18.0641 14.525 18.0203 14.6332C17.9766 14.7414 17.9119 14.8399 17.8299 14.923C17.748 15.0061 17.6504 15.0721 17.5428 15.1173C17.4352 15.1626 17.3198 15.186 17.2031 15.1864H15.6441V13.661C15.6441 13.5396 15.5959 13.4232 15.51 13.3374C15.4242 13.2516 15.3078 13.2034 15.1864 13.2034H4.81356C4.69219 13.2034 4.57579 13.2516 4.48997 13.3374C4.40415 13.4232 4.35593 13.5396 4.35593 13.661V15.1864H2.79695C2.56336 15.1856 2.33956 15.0925 2.17439 14.9273C2.00921 14.7621 1.91606 14.5383 1.91525 14.3047V7.69966C1.91606 7.46607 2.00921 7.24227 2.17439 7.0771C2.33956 6.91192 2.56336 6.81877 2.79695 6.81797H17.2031C17.4366 6.81877 17.6604 6.91192 17.8256 7.0771C17.9908 7.24227 18.0839 7.46607 18.0847 7.69966V14.2925Z" fill="#8181A5" stroke="#8181A5" stroke-width="0.5"/>
<path d="M4.46549 8.32227H3.41905C3.29768 8.32227 3.18128 8.37048 3.09546 8.4563C3.00964 8.54212 2.96143 8.65852 2.96143 8.77989C2.96143 8.90126 3.00964 9.01766 3.09546 9.10348C3.18128 9.18931 3.29768 9.23752 3.41905 9.23752H4.46549C4.58686 9.23752 4.70326 9.18931 4.78908 9.10348C4.87491 9.01766 4.92312 8.90126 4.92312 8.77989C4.92312 8.65852 4.87491 8.54212 4.78908 8.4563C4.70326 8.37048 4.58686 8.32227 4.46549 8.32227ZM6.86651 8.32227H5.82007C5.6987 8.32227 5.5823 8.37048 5.49648 8.4563C5.41066 8.54212 5.36244 8.65852 5.36244 8.77989C5.36244 8.90126 5.41066 9.01766 5.49648 9.10348C5.5823 9.18931 5.6987 9.23752 5.82007 9.23752H6.86651C6.98788 9.23752 7.10428 9.18931 7.1901 9.10348C7.27592 9.01766 7.32414 8.90126 7.32414 8.77989C7.32414 8.65852 7.27592 8.54212 7.1901 8.4563C7.10428 8.37048 6.98788 8.32227 6.86651 8.32227Z" fill="#8181A5" stroke="#8181A5" stroke-width="0.5"/>
</svg>
