<svg width="24" height="24" viewBox="0 0 24 24" fill="none" xmlns="http://www.w3.org/2000/svg">
<path d="M0.327151 12.0296C0.0691603 12.1246 -0.0638195 12.4105 0.0301617 12.6695L0.344166 13.5335L2.73504 11.1426L0.327151 12.0296Z" fill="#48a800"/>
<path d="M2.59009 19.709L4.03004 23.6688C4.07504 23.7939 4.16902 23.8959 4.28901 23.9508C4.356 23.9818 4.42799 23.9979 4.49999 23.9979C4.559 23.9979 4.61699 23.9879 4.673 23.9669L6.26196 23.3809L2.59009 19.709Z" fill="#48a800"/>
<path d="M23.9693 16.3297L22.3213 11.7988L18.3665 15.7537L20.3264 15.0317C20.5834 14.9337 20.8734 15.0677 20.9684 15.3277C21.0644 15.5867 20.9314 15.8747 20.6724 15.9697L18.1824 16.8876C18.1255 16.9086 18.0675 16.9186 18.0094 16.9186C17.8064 16.9186 17.6144 16.7936 17.5405 16.5916C17.5395 16.5886 17.5405 16.5856 17.5395 16.5826L13.3486 20.7735L23.6723 16.9696C23.9312 16.8747 24.0642 16.5886 23.9693 16.3297Z" fill="#48a800"/>
<path d="M23.8534 8.14598L15.8537 0.146245C15.6587 -0.0487483 15.3417 -0.0487483 15.1467 0.146245L0.147222 15.1457C-0.0477718 15.3407 -0.0477718 15.6577 0.147222 15.8527L8.14696 23.8525C8.24394 23.9505 8.37195 23.9995 8.49996 23.9995C8.62798 23.9995 8.75594 23.9505 8.85395 23.8534L23.8534 8.85396C24.0484 8.65798 24.0484 8.34196 23.8534 8.14598ZM5.85406 13.8538L3.85411 15.8537C3.7561 15.9507 3.62813 15.9997 3.50012 15.9997C3.37211 15.9997 3.24415 15.9507 3.14613 15.8537C2.95114 15.6587 2.95114 15.3417 3.14613 15.1467L5.14608 13.1468C5.34107 12.9518 5.65808 12.9518 5.85307 13.1468C6.04806 13.3418 6.04905 13.6578 5.85406 13.8538ZM14.4887 14.4887C14.1348 14.8427 13.6538 15.0127 13.1188 15.0127C12.2348 15.0127 11.2018 14.5498 10.3379 13.6848C9.70588 13.0528 9.26189 12.2968 9.08893 11.5569C8.89693 10.7319 9.05494 10.0139 9.5339 9.53395C10.0129 9.05397 10.7309 8.89596 11.5568 9.08898C12.2968 9.26199 13.0528 9.70495 13.6847 10.3379C15.0737 11.7258 15.4277 13.5498 14.4887 14.4887ZM20.8535 8.85396L18.8536 10.8539C18.7556 10.9509 18.6276 10.9999 18.4996 10.9999C18.3716 10.9999 18.2436 10.9509 18.1456 10.8539C17.9506 10.6589 17.9506 10.3419 18.1456 10.1469L20.1456 8.14697C20.3406 7.95197 20.6576 7.95197 20.8526 8.14697C21.0475 8.34196 21.0485 8.65798 20.8535 8.85396Z" fill="#48a800"/>
</svg>
