<svg width="239" height="221" viewBox="0 0 239 221" fill="none" xmlns="http://www.w3.org/2000/svg">
<g style="mix-blend-mode:multiply" opacity="0.330985" filter="url(#filter0_f_658_13342)">
<path d="M119.403 200C142.071 200 160.448 198.162 160.448 195.895C160.448 193.629 142.071 191.791 119.403 191.791C96.7345 191.791 78.3582 193.629 78.3582 195.895C78.3582 198.162 96.7345 200 119.403 200Z" fill="url(#paint0_linear_658_13342)" style="mix-blend-mode:multiply"/>
</g>
<g opacity="0.779367">
<g opacity="0.598842" filter="url(#filter1_f_658_13342)">
<path d="M29.5061 138.359C32.1693 138.359 34.3282 137.702 34.3282 136.893C34.3282 136.084 32.1693 135.428 29.5061 135.428C26.843 135.428 24.6841 136.084 24.6841 136.893C24.6841 137.702 26.843 138.359 29.5061 138.359Z" fill="#85A0C7"/>
</g>
<path opacity="0.576521" fill-rule="evenodd" clip-rule="evenodd" d="M25.2698 136.87C26.6377 137.452 33.0434 127.357 33.9769 124.661C34.9104 121.966 33.9193 119.037 31.7633 118.12C29.6073 117.203 27.1028 118.644 26.1693 121.34C25.2358 124.035 23.9018 136.288 25.2698 136.87Z" fill="url(#paint1_linear_658_13342)"/>
<path fill-rule="evenodd" clip-rule="evenodd" d="M25.5128 136.88C27.1759 136.398 26.9313 122.072 26.1286 118.832C25.326 115.591 22.5504 113.58 19.9292 114.34C17.3081 115.1 15.8339 118.342 16.6366 121.583C17.4393 124.823 23.8497 137.362 25.5128 136.88Z" fill="url(#paint2_linear_658_13342)"/>
</g>
<path opacity="0.7" fill-rule="evenodd" clip-rule="evenodd" d="M40.6717 31.3433C40.3285 31.3433 39.9905 31.3212 39.659 31.2785C39.2564 31.3215 38.8472 31.3433 38.4329 31.3433C32.0445 31.3433 26.8657 26.1645 26.8657 19.7761C26.8657 13.3878 32.0445 8.20895 38.4329 8.20895C39.1687 8.20895 39.8885 8.27767 40.5862 8.40902C43.2053 3.41071 48.4432 0 54.4777 0C63.1329 0 70.1493 7.01643 70.1493 15.6716H79.4777C83.8053 15.6716 87.3135 19.1799 87.3135 23.5075C87.3135 27.8351 83.8053 31.3433 79.4777 31.3433H40.6717Z" fill="url(#paint3_linear_658_13342)"/>
<path fill-rule="evenodd" clip-rule="evenodd" d="M0 173.134C12.9652 154.135 25.3451 144.636 37.1398 144.636C48.9345 144.636 62.4252 154.135 77.6119 173.134H0Z" fill="url(#paint4_linear_658_13342)"/>
<path fill-rule="evenodd" clip-rule="evenodd" d="M45.9702 173.134C59.6507 147.263 74.291 134.328 89.8913 134.328C105.491 134.328 133.836 147.263 174.925 173.134H45.9702Z" fill="url(#paint5_linear_658_13342)"/>
<path fill-rule="evenodd" clip-rule="evenodd" d="M238.806 173.134C224.521 152.922 211.048 142.816 198.387 142.816C185.726 142.816 165.368 152.922 137.313 173.134H238.806Z" fill="url(#paint6_linear_658_13342)"/>
<g opacity="0.669852" filter="url(#filter2_f_658_13342)">
<path d="M194.062 117.91C196.105 117.91 197.761 117.38 197.761 116.727C197.761 116.073 196.105 115.543 194.062 115.543C192.019 115.543 190.363 116.073 190.363 116.727C190.363 117.38 192.019 117.91 194.062 117.91Z" fill="#85A0C7"/>
</g>
<path opacity="0.576521" fill-rule="evenodd" clip-rule="evenodd" d="M190.813 116.709C191.862 117.125 196.776 109.911 197.492 107.985C198.208 106.059 197.447 103.966 195.794 103.311C194.14 102.655 192.219 103.685 191.503 105.611C190.787 107.537 189.763 116.293 190.813 116.709Z" fill="url(#paint7_linear_658_13342)"/>
<path fill-rule="evenodd" clip-rule="evenodd" d="M190.636 116.717C191.926 116.378 191.736 106.299 191.114 104.019C190.491 101.739 188.339 100.324 186.306 100.859C184.273 101.393 183.129 103.675 183.752 105.955C184.374 108.234 189.346 117.056 190.636 116.717Z" fill="url(#paint8_linear_658_13342)"/>
<g opacity="0.896856">
<g opacity="0.596866" filter="url(#filter3_f_658_13342)">
<path d="M205.895 198.508C208.574 198.508 210.746 197.846 210.746 197.031C210.746 196.215 208.574 195.554 205.895 195.554C203.216 195.554 201.045 196.215 201.045 197.031C201.045 197.846 203.216 198.508 205.895 198.508Z" fill="#85A0C7"/>
</g>
<path opacity="0.576521" fill-rule="evenodd" clip-rule="evenodd" d="M202.403 197.297C204.182 198.001 212.509 185.791 213.722 182.531C214.936 179.271 213.648 175.729 210.845 174.619C208.042 173.51 204.786 175.253 203.573 178.513C202.359 181.773 200.625 196.593 202.403 197.297Z" fill="url(#paint9_linear_658_13342)"/>
<path fill-rule="evenodd" clip-rule="evenodd" d="M202.385 197.31C204.595 196.733 204.27 179.592 203.203 175.715C202.136 171.838 198.448 169.432 194.965 170.341C191.482 171.25 189.523 175.13 190.589 179.007C191.656 182.884 200.175 197.887 202.385 197.31Z" fill="url(#paint10_linear_658_13342)"/>
</g>
<path fill-rule="evenodd" clip-rule="evenodd" d="M97.5599 46.2686H160.448C168.691 46.2686 175.373 52.9509 175.373 61.1939V143.365C175.373 159.851 162.008 173.216 145.522 173.216H82.6345V61.1939C82.6345 52.9509 89.3168 46.2686 97.5599 46.2686Z" fill="url(#paint11_linear_658_13342)"/>
<path fill-rule="evenodd" clip-rule="evenodd" d="M97.5599 48.5078H160.448C168.691 48.5078 175.373 55.1901 175.373 63.4332V143.366C175.373 159.852 162.008 173.216 145.522 173.216H82.6345V63.4332C82.6345 55.1901 89.3168 48.5078 97.5599 48.5078Z" fill="url(#paint12_linear_658_13342)"/>
<path fill-rule="evenodd" clip-rule="evenodd" d="M72.388 95.3711H82.6345V173.216H72.388C64.145 173.216 57.4626 166.534 57.4626 158.291V110.296C57.4626 102.053 64.145 95.3711 72.388 95.3711Z" fill="url(#paint13_linear_658_13342)"/>
<path d="M98.214 53.4541H159.794C164.74 53.4541 168.749 57.4635 168.749 62.4093V140.657C168.749 154.67 157.389 166.03 143.376 166.03H89.2588V62.4093C89.2588 57.4635 93.2682 53.4541 98.214 53.4541Z" fill="url(#paint14_linear_658_13342)"/>
<mask id="mask0_658_13342" style="mask-type:alpha" maskUnits="userSpaceOnUse" x="89" y="53" width="80" height="114">
<path d="M98.214 53.4541H159.794C164.74 53.4541 168.749 57.4635 168.749 62.4093V140.657C168.749 154.67 157.389 166.03 143.376 166.03H89.2588V62.4093C89.2588 57.4635 93.2682 53.4541 98.214 53.4541Z" fill="url(#paint15_linear_658_13342)"/>
</mask>
<g mask="url(#mask0_658_13342)">
<path fill-rule="evenodd" clip-rule="evenodd" d="M98.214 55.6934H159.794C164.74 55.6934 168.749 59.7027 168.749 64.6486V142.896C168.749 156.909 157.389 168.269 143.376 168.269H89.2588V64.6486C89.2588 59.7027 93.2682 55.6934 98.214 55.6934Z" fill="url(#paint16_linear_658_13342)"/>
</g>
<path opacity="0.597331" d="M156.873 70.2207H106.831C104.516 70.2207 102.64 72.0974 102.64 74.4124C102.64 76.7273 104.516 78.604 106.831 78.604H156.873C159.188 78.604 161.065 76.7273 161.065 74.4124C161.065 72.0974 159.188 70.2207 156.873 70.2207Z" fill="url(#paint17_linear_658_13342)"/>
<path opacity="0.597331" d="M156.873 88.1855H106.831C104.516 88.1855 102.64 90.0622 102.64 92.3772C102.64 94.6922 104.516 96.5689 106.831 96.5689H156.873C159.188 96.5689 161.065 94.6922 161.065 92.3772C161.065 90.0622 159.188 88.1855 156.873 88.1855Z" fill="url(#paint18_linear_658_13342)"/>
<path opacity="0.597331" d="M130.045 106.149H106.831C104.516 106.149 102.64 108.026 102.64 110.341C102.64 112.656 104.516 114.533 106.831 114.533H130.045C132.36 114.533 134.237 112.656 134.237 110.341C134.237 108.026 132.36 106.149 130.045 106.149Z" fill="url(#paint19_linear_658_13342)"/>
<path d="M72.388 95.3711H82.6345V160.63C82.6345 167.581 76.9996 173.216 70.0486 173.216C63.0976 173.216 57.4626 167.581 57.4626 160.63V110.296C57.4626 102.053 64.145 95.3711 72.388 95.3711Z" fill="#C0CEE3"/>
<mask id="mask1_658_13342" style="mask-type:alpha" maskUnits="userSpaceOnUse" x="57" y="95" width="26" height="79">
<g style="mix-blend-mode:multiply" opacity="0.3976">
<path d="M72.388 95.3711H82.6345V160.63C82.6345 167.581 76.9996 173.216 70.0486 173.216C63.0976 173.216 57.4626 167.581 57.4626 160.63V110.296C57.4626 102.053 64.145 95.3711 72.388 95.3711Z" fill="#C0CEE3" fill-opacity="0.60607"/>
</g>
</mask>
<g mask="url(#mask1_658_13342)">
<g style="mix-blend-mode:multiply" opacity="0.3976">
<path fill-rule="evenodd" clip-rule="evenodd" d="M64.7363 83.7446L98.1363 74.7556L116.961 145.321L83.5611 154.31L64.7363 83.7446Z" fill="#C0CEE3" fill-opacity="0.60607"/>
</g>
</g>
<path fill-rule="evenodd" clip-rule="evenodd" d="M117.035 114.04C128.359 102.721 146.719 102.721 158.044 114.04C169.368 125.36 169.368 143.713 158.044 155.032C146.719 166.352 128.359 166.352 117.035 155.032C105.71 143.713 105.71 125.36 117.035 114.04ZM121.135 118.14C112.076 127.195 112.076 141.877 121.135 150.933C130.195 159.988 144.883 159.988 153.943 150.933C163.002 141.877 163.002 127.195 153.943 118.14C144.883 109.084 130.195 109.084 121.135 118.14Z" fill="url(#paint20_linear_658_13342)"/>
<path fill-rule="evenodd" clip-rule="evenodd" d="M159.069 151.958L164.195 157.081L164.662 156.615C165.537 155.742 166.954 155.742 167.829 156.615L189.996 178.771C190.836 179.609 190.87 180.949 190.098 181.829L189.998 181.936C189.997 181.936 189.997 181.936 189.996 181.936L184.961 186.969C184.087 187.842 182.67 187.842 181.795 186.969L159.627 164.813C158.787 163.975 158.753 162.635 159.525 161.755L159.626 161.648C159.626 161.648 159.626 161.647 159.627 161.648L160.093 161.181L154.968 156.057L159.069 151.958Z" fill="url(#paint21_linear_658_13342)"/>
<path d="M153.939 150.937C162.997 141.88 162.997 127.195 153.939 118.137C144.882 109.079 130.196 109.079 121.139 118.137C112.081 127.195 112.081 141.88 121.139 150.937C130.196 159.995 144.882 159.995 153.939 150.937Z" fill="url(#paint22_linear_658_13342)"/>
<defs>
<filter id="filter0_f_658_13342" x="76.3582" y="189.791" width="86.0896" height="12.209" filterUnits="userSpaceOnUse" color-interpolation-filters="sRGB">
<feFlood flood-opacity="0" result="BackgroundImageFix"/>
<feBlend mode="normal" in="SourceGraphic" in2="BackgroundImageFix" result="shape"/>
<feGaussianBlur stdDeviation="1" result="effect1_foregroundBlur_658_13342"/>
</filter>
<filter id="filter1_f_658_13342" x="2.68408" y="113.428" width="53.644" height="46.9307" filterUnits="userSpaceOnUse" color-interpolation-filters="sRGB">
<feFlood flood-opacity="0" result="BackgroundImageFix"/>
<feBlend mode="normal" in="SourceGraphic" in2="BackgroundImageFix" result="shape"/>
<feGaussianBlur stdDeviation="11" result="effect1_foregroundBlur_658_13342"/>
</filter>
<filter id="filter2_f_658_13342" x="168.363" y="93.543" width="51.3977" height="46.3672" filterUnits="userSpaceOnUse" color-interpolation-filters="sRGB">
<feFlood flood-opacity="0" result="BackgroundImageFix"/>
<feBlend mode="normal" in="SourceGraphic" in2="BackgroundImageFix" result="shape"/>
<feGaussianBlur stdDeviation="11" result="effect1_foregroundBlur_658_13342"/>
</filter>
<filter id="filter3_f_658_13342" x="179.045" y="173.554" width="53.7014" height="46.9541" filterUnits="userSpaceOnUse" color-interpolation-filters="sRGB">
<feFlood flood-opacity="0" result="BackgroundImageFix"/>
<feBlend mode="normal" in="SourceGraphic" in2="BackgroundImageFix" result="shape"/>
<feGaussianBlur stdDeviation="11" result="effect1_foregroundBlur_658_13342"/>
</filter>
<linearGradient id="paint0_linear_658_13342" x1="177.638" y1="195.895" x2="57.7992" y2="195.895" gradientUnits="userSpaceOnUse">
<stop stop-color="#B2CAF4" stop-opacity="0"/>
<stop offset="1" stop-color="#81BAFF"/>
</linearGradient>
<linearGradient id="paint1_linear_658_13342" x1="30.0908" y1="119.693" x2="24.7047" y2="135.574" gradientUnits="userSpaceOnUse">
<stop stop-color="#EDF5FF"/>
<stop offset="1" stop-color="#A1B6CC"/>
</linearGradient>
<linearGradient id="paint2_linear_658_13342" x1="21.1031" y1="115.902" x2="26.6435" y2="135.682" gradientUnits="userSpaceOnUse">
<stop stop-color="#EEF4FF"/>
<stop offset="1" stop-color="#A1B6CC"/>
</linearGradient>
<linearGradient id="paint3_linear_658_13342" x1="52.3972" y1="31.3433" x2="52.3972" y2="-13.8374" gradientUnits="userSpaceOnUse">
<stop stop-color="#F7F8F9"/>
<stop offset="1" stop-color="#D5E4F8"/>
</linearGradient>
<linearGradient id="paint4_linear_658_13342" x1="32.7812" y1="173.051" x2="32.7812" y2="145.45" gradientUnits="userSpaceOnUse">
<stop stop-color="#F2F4F9" stop-opacity="0"/>
<stop offset="1" stop-color="#E7EEFF"/>
</linearGradient>
<linearGradient id="paint5_linear_658_13342" x1="100.437" y1="173.021" x2="100.437" y2="135.437" gradientUnits="userSpaceOnUse">
<stop stop-color="#F2F4F9" stop-opacity="0"/>
<stop offset="1" stop-color="#E7EEFF"/>
</linearGradient>
<linearGradient id="paint6_linear_658_13342" x1="180.181" y1="173.134" x2="180.181" y2="142.816" gradientUnits="userSpaceOnUse">
<stop offset="0.00290329" stop-color="#F2F4F9" stop-opacity="0"/>
<stop offset="0.979756" stop-color="#EAF0FF"/>
</linearGradient>
<linearGradient id="paint7_linear_658_13342" x1="194.579" y1="104.435" x2="190.473" y2="115.713" gradientUnits="userSpaceOnUse">
<stop stop-color="#EDF5FF"/>
<stop offset="1" stop-color="#A1B6CC"/>
</linearGradient>
<linearGradient id="paint8_linear_658_13342" x1="187.136" y1="101.958" x2="191.399" y2="115.764" gradientUnits="userSpaceOnUse">
<stop stop-color="#EEF4FF"/>
<stop offset="1" stop-color="#A1B6CC"/>
</linearGradient>
<linearGradient id="paint9_linear_658_13342" x1="208.789" y1="176.522" x2="201.831" y2="195.608" gradientUnits="userSpaceOnUse">
<stop stop-color="#EDF5FF"/>
<stop offset="1" stop-color="#A1B6CC"/>
</linearGradient>
<linearGradient id="paint10_linear_658_13342" x1="196.375" y1="172.211" x2="203.675" y2="195.676" gradientUnits="userSpaceOnUse">
<stop stop-color="#EEF4FF"/>
<stop offset="1" stop-color="#A1B6CC"/>
</linearGradient>
<linearGradient id="paint11_linear_658_13342" x1="129.004" y1="46.2686" x2="129.004" y2="173.216" gradientUnits="userSpaceOnUse">
<stop stop-color="#F4F8FF"/>
<stop offset="1" stop-color="#CCD8EB"/>
</linearGradient>
<linearGradient id="paint12_linear_658_13342" x1="129.004" y1="48.5078" x2="129.004" y2="173.216" gradientUnits="userSpaceOnUse">
<stop stop-color="#E8EFFB"/>
<stop offset="1" stop-color="#CCD8EB"/>
</linearGradient>
<linearGradient id="paint13_linear_658_13342" x1="70.0486" y1="95.3711" x2="70.0486" y2="173.216" gradientUnits="userSpaceOnUse">
<stop stop-color="#E8EFFB"/>
<stop offset="1" stop-color="#CCD8EB"/>
</linearGradient>
<linearGradient id="paint14_linear_658_13342" x1="129.004" y1="53.9503" x2="129.004" y2="164.385" gradientUnits="userSpaceOnUse">
<stop stop-color="#DCE5F4"/>
<stop offset="1" stop-color="#F3F9FF"/>
</linearGradient>
<linearGradient id="paint15_linear_658_13342" x1="129.004" y1="53.9503" x2="129.004" y2="164.385" gradientUnits="userSpaceOnUse">
<stop stop-color="white"/>
<stop offset="1" stop-color="#F3F9FF"/>
</linearGradient>
<linearGradient id="paint16_linear_658_13342" x1="129.004" y1="56.1896" x2="129.004" y2="166.625" gradientUnits="userSpaceOnUse">
<stop stop-color="white"/>
<stop offset="1" stop-color="#F3F9FF"/>
</linearGradient>
<linearGradient id="paint17_linear_658_13342" x1="161.065" y1="74.4519" x2="106.572" y2="69.1722" gradientUnits="userSpaceOnUse">
<stop stop-color="#E8EFFB"/>
<stop offset="1" stop-color="#B4C5DC"/>
</linearGradient>
<linearGradient id="paint18_linear_658_13342" x1="161.065" y1="92.4167" x2="106.572" y2="87.137" gradientUnits="userSpaceOnUse">
<stop stop-color="#E8EFFB"/>
<stop offset="1" stop-color="#B4C5DC"/>
</linearGradient>
<linearGradient id="paint19_linear_658_13342" x1="134.237" y1="110.476" x2="105.355" y2="105.302" gradientUnits="userSpaceOnUse">
<stop stop-color="#E8EFFB"/>
<stop offset="1" stop-color="#B4C5DC"/>
</linearGradient>
<linearGradient id="paint20_linear_658_13342" x1="137.539" y1="105.551" x2="137.539" y2="163.522" gradientUnits="userSpaceOnUse">
<stop stop-color="#E6F1FD"/>
<stop offset="1" stop-color="#AABCD6"/>
</linearGradient>
<linearGradient id="paint21_linear_658_13342" x1="190.653" y1="177.952" x2="157.075" y2="155.291" gradientUnits="userSpaceOnUse">
<stop stop-color="#E8EFFB"/>
<stop offset="1" stop-color="#B4C5DC"/>
</linearGradient>
<linearGradient id="paint22_linear_658_13342" x1="121.284" y1="118.282" x2="153.939" y2="150.937" gradientUnits="userSpaceOnUse">
<stop stop-color="white" stop-opacity="0.635708"/>
<stop offset="1" stop-color="white" stop-opacity="0.0974377"/>
</linearGradient>
</defs>
</svg>
