<svg width="43" height="42" viewBox="0 0 43 42" fill="none" xmlns="http://www.w3.org/2000/svg">
<path d="M8.23902 23.5575C8.41074 24.5142 8.69439 25.435 9.07992 26.3266C9.77494 27.9347 10.7914 29.3137 12.0465 30.5249C12.4947 30.9573 13.0123 31.1161 13.6083 30.8889C14.388 30.5914 14.6625 29.9691 14.5602 29.2827C14.4674 28.6589 14.2272 28.0739 13.9532 27.5057C13.3486 26.2515 12.5928 25.0824 11.9159 23.8689C11.3066 22.7759 10.7646 21.6528 10.436 20.4397C10.304 19.9523 10.1571 19.464 10.1806 18.9488C10.192 18.6986 10.359 18.5546 10.5623 18.4528C10.7555 18.3552 10.9521 18.348 11.1411 18.4805C11.3214 18.6068 11.4233 18.7895 11.5113 18.9808C12.0303 20.1054 12.6885 21.1405 13.5155 22.0627C14.111 22.7266 14.7745 23.3198 15.5015 23.8378C15.8349 24.0755 16.1822 24.2922 16.5615 24.4673C16.5639 24.44 16.5711 24.4228 16.5658 24.4109C16.3243 23.8474 16.1698 23.2571 16.1214 22.6492C16.0784 22.111 16.1114 21.572 16.2515 21.0424C16.5194 20.0313 17.059 19.1999 17.8587 18.5279C18.626 17.8831 19.5147 17.5344 20.503 17.4511C20.9449 17.4138 21.3912 17.4392 21.8337 17.531C22.9372 17.7592 23.8556 18.2892 24.5874 19.1473C25.2504 19.9251 25.6101 20.8329 25.7053 21.8384C25.7627 22.4463 25.7062 23.0553 25.5187 23.6455C25.2121 24.6079 24.6611 25.4024 23.8666 26.0204C23.3777 26.4002 22.841 26.7001 22.2312 26.8489C22.0231 26.8996 21.816 26.9532 21.6084 27.0053C21.6093 27.0197 21.6098 27.0345 21.6108 27.0488C21.7643 27.0488 21.9188 27.0417 22.0719 27.0503C22.3335 27.0656 22.566 26.957 22.8095 26.8929C23.8532 26.6198 24.8687 26.2692 25.8407 25.7999C27.1522 25.1661 28.3471 24.3621 29.397 23.3466C29.6357 23.1155 29.8529 22.862 30.115 22.6544C30.6096 22.2631 31.1276 22.443 31.373 22.8553C31.5725 23.1902 31.4936 23.5283 31.3137 23.844C30.7072 24.9083 29.9218 25.8377 29.0933 26.7303C28.538 27.3287 27.9467 27.8926 27.3378 28.4384C26.6237 29.0784 25.8717 29.6715 25.126 30.2723C24.4119 30.8478 24.4214 31.8656 25.0949 32.4793C25.6044 32.9438 26.1903 32.9873 26.783 32.6769C28.2438 31.912 29.5506 30.9415 30.6618 29.7141C31.2343 29.0822 31.7356 28.4016 32.1632 27.6654C33.2361 25.8191 33.7494 23.8077 33.8785 21.6944C33.9201 21.0099 33.9168 20.3187 33.8321 19.6309C33.7766 19.1779 33.7121 18.7283 33.6169 18.2825C33.3203 16.892 32.7741 15.6043 32.0331 14.396C31.6615 13.79 31.2415 13.2189 30.7871 12.6731C30.6206 12.4731 30.4632 12.2612 30.2533 12.1C30.1562 12.0254 30.0624 12.0178 29.9548 12.0871C29.8443 12.1584 29.7788 12.266 29.707 12.3665C29.3382 12.885 28.9206 13.3542 28.4083 13.7383C27.3077 14.5634 26.0631 14.9667 24.6984 15.0222C24.333 15.037 23.9694 14.9901 23.6107 14.9289C23.3634 14.8863 23.1151 14.8347 22.8477 14.7203C22.9204 14.7203 22.9558 14.7194 22.9912 14.7203C23.5375 14.7361 24.0837 14.7199 24.6166 14.5936C25.8129 14.3095 26.8184 13.7101 27.5875 12.7396C28.5164 11.5672 28.8881 10.2384 28.7126 8.75124C28.6456 8.18586 28.4968 7.64821 28.262 7.13066C27.7841 6.07689 27.0298 5.27904 26.0167 4.73183C25.1232 4.24967 24.1651 4.02485 23.1453 4.05786C22.8444 4.06742 22.5464 4.09325 22.257 4.16022C21.3592 4.36829 20.5604 4.78205 19.8802 5.4034C19.0971 6.11946 18.5523 6.98764 18.2926 8.02466C18.2218 8.30831 18.0577 8.50251 17.7612 8.56517C16.9925 8.72828 16.2625 9.00237 15.5527 9.33337C14.3645 9.88776 13.2802 10.6019 12.2972 11.4686C11.7031 11.9929 11.1702 12.5755 10.6833 13.2007C10.0127 14.0607 9.46211 14.992 9.03592 15.9946C8.60351 17.012 8.3012 18.0672 8.14574 19.165C8.07017 19.6998 8.02281 20.2355 8.00272 20.7731C7.98455 21.2548 8.01229 21.7355 8.05629 22.2163C8.09839 22.6669 8.15914 23.1127 8.23902 23.5575Z" fill="#53C100"/>
<path d="M33.9771 36.0608C33.661 35.7729 33.2884 35.7958 32.9148 35.9364C32.7727 35.99 32.6373 36.0608 32.4938 36.1259C32.4886 36.0685 32.48 36.024 32.5015 35.98C32.6015 35.7748 32.633 35.5566 32.6483 35.3299C32.6857 34.7822 32.1561 34.3814 31.7639 34.3924C31.3411 34.4043 30.9818 34.5679 30.6255 34.7602C30.4987 34.8286 30.3729 34.8999 30.216 34.9865C30.2495 34.8946 30.2706 34.8396 30.2897 34.7841C30.4007 34.4598 30.4777 34.1346 30.3715 33.7897C30.2098 33.265 29.653 32.9981 29.0623 33.1372C28.5218 33.2645 28.0913 33.5754 27.6828 33.9284C27.324 34.2384 26.9749 34.5608 26.6003 34.8502C25.8953 35.395 25.1357 35.8523 24.3144 36.2062C23.4256 36.5889 22.4986 36.8237 21.5358 36.8845C21.0947 36.9122 20.6485 36.9079 20.2031 36.8673C19.7009 36.8214 19.2068 36.7405 18.7203 36.6161C18.1238 36.464 17.5345 36.2856 16.9816 36.0082C16.8041 35.9192 16.6381 35.8068 16.5243 35.6341C16.9926 35.5002 17.4656 35.4701 17.9277 35.3749C19.2393 35.1056 20.4614 34.6306 21.5592 33.8528C22.0002 33.5405 22.4379 33.2219 22.767 32.7876C23.043 32.4236 23.1697 32.0046 23.0884 31.5478C23.0128 31.1225 22.7373 30.8513 22.3484 30.6877C21.9844 30.5346 21.6094 30.5155 21.2177 30.5614C20.6513 30.6279 20.0993 30.7485 19.5655 30.9393C19.047 31.1244 18.5414 31.3469 18.0248 31.5382C17.1279 31.8706 16.2071 32.1093 15.2586 32.2461C14.7779 32.3155 14.2967 32.3815 13.8117 32.3867C13.2664 32.3925 12.7206 32.4097 12.1743 32.3667C11.8247 32.3394 11.4736 32.3126 11.1277 32.2633C10.5628 32.1825 10.0018 32.0744 9.44546 31.9385C7.67324 31.5066 6.02826 30.7843 4.49425 29.8033C3.72701 29.3125 2.9942 28.7763 2.32406 28.1569C1.95192 27.8129 1.59413 27.4561 1.24925 27.0849C1.05744 26.8783 0.883328 26.6539 0.649902 26.4492C0.653251 26.5071 0.649424 26.5387 0.657556 26.5669C1.21338 28.4606 1.95335 30.274 2.99947 31.9548C3.65095 33.0014 4.37993 33.9915 5.19931 34.9119C5.70443 35.4792 6.24303 36.0139 6.80459 36.5272C7.35563 37.0304 7.93154 37.5035 8.53424 37.9416C10.1252 39.0973 11.8405 40.0238 13.6878 40.7044C14.7171 41.0838 15.768 41.3851 16.8424 41.5999C17.4719 41.7257 18.1071 41.8194 18.7476 41.884C19.313 41.9409 19.8783 41.9883 20.4456 41.9955C20.9201 42.0012 21.3946 42.0079 21.8706 41.9773C22.2413 41.9538 22.6144 41.9405 22.9832 41.9017C23.5323 41.8438 24.0795 41.7663 24.6243 41.6692C25.4413 41.5238 26.2473 41.3354 27.0428 41.1C28.5978 40.6403 30.0778 40.0037 31.4846 39.1991C32.3403 38.7098 33.1626 38.1679 33.9269 37.5432C34.3885 37.1681 34.4143 36.4593 33.9771 36.0608Z" fill="#53C100"/>
<path d="M42.0444 21.0222C42.0444 9.41212 32.6322 0 21.0222 0C9.41212 0 0 9.41212 0 21.0222C0 22.2266 0.101885 23.4076 0.296087 24.557C0.910264 25.1669 2.09748 26.2212 3.98259 27.4079C3.23782 25.4209 2.83029 23.2694 2.83029 21.0227C2.83029 10.9753 10.9753 2.83029 21.0227 2.83029C31.07 2.83029 39.215 10.9753 39.215 21.0227C39.215 26.2489 37.0109 30.9605 33.4818 34.2787C34.1519 34.3581 35.2985 34.6977 35.707 36.0662C39.6168 32.2481 42.0444 26.9186 42.0444 21.0222Z" fill="#F2B205"/>
</svg>
