<svg width="293" height="80" viewBox="0 0 293 80" fill="none" xmlns="http://www.w3.org/2000/svg">
<path d="M292.046 40.1771C292.046 35.9715 292.067 31.7649 292.04 27.5592C292.014 23.6906 292.506 24.7257 289.7 21.8384C288.872 20.9865 287.911 20.4908 286.762 20.3569C283.856 20.018 280.94 20.1264 278.031 20.2713C276.63 20.3405 275.396 20.889 274.47 22.0242C274.109 22.4661 273.651 22.8278 273.266 23.2515C273.01 23.533 272.832 23.5121 272.575 23.2469C272.042 22.6957 271.428 22.2374 270.777 21.8311C268.097 20.1565 265.108 19.5925 262.017 19.5287C258.794 19.4613 255.563 19.3893 252.345 19.6626C250.352 19.8321 248.32 19.9569 246.629 21.2425C246.379 21.432 246.243 21.3218 246.088 21.155C245.313 20.3205 244.318 20.0817 243.227 20.0817C235.174 20.0836 227.121 20.0817 219.067 20.0845C218.856 20.0845 218.535 20.0517 218.452 20.1674C217.94 20.8808 217.345 20.5491 216.738 20.3879C216.372 20.2904 215.987 20.2485 215.608 20.2102C213.701 20.018 211.787 20.151 209.877 20.1118C207.726 20.0672 205.788 20.5364 204.432 22.3814C204.094 22.8415 203.836 22.7732 203.507 22.3704C202.567 21.2206 201.414 20.4243 199.886 20.2858C196.905 20.0161 193.921 19.997 190.943 20.2949C189.963 20.3933 189.016 20.6958 188.308 21.4548C188.042 21.74 187.873 21.6252 187.673 21.4029C186.917 20.5646 185.926 20.2476 184.845 20.2157C183.317 20.171 181.785 20.2357 180.259 20.1583C178.174 20.0535 176.372 20.5455 175.071 22.2921C174.73 22.7504 174.454 22.6766 174.128 22.2711C172.923 20.7705 171.258 20.2804 169.429 20.2166C166.969 20.1309 164.505 20.1164 162.047 20.2385C160.135 20.3332 158.36 20.7997 157.108 22.426C156.905 22.6893 156.658 22.9271 156.399 23.1349C155.003 24.2546 154.58 25.8044 154.576 27.4763C154.553 36.5573 154.564 45.6383 154.568 54.7193C154.569 55.7142 154.884 56.5871 155.633 57.2877C156.243 57.859 156.834 58.4521 157.409 59.0589C157.978 59.6593 158.667 60.0147 159.475 60.1049C161.88 60.3718 164.293 60.2962 166.699 60.1541C167.756 60.0921 168.666 59.6138 169.38 58.7965C169.663 58.4731 170.018 58.2116 170.282 57.8763C170.659 57.398 170.936 57.3442 171.365 57.8572C172.514 59.2338 173.974 60.1422 175.795 60.1969C178.396 60.2743 181.005 60.3973 183.599 60.0876C184.744 59.9509 185.88 59.673 186.763 58.8694C187.646 58.0667 188.523 57.2403 189.284 56.3256C189.72 55.8035 189.908 55.8992 190.271 56.321C192.526 58.9368 195.481 60.1076 198.842 60.3909C201.68 60.6306 204.525 60.5194 207.366 60.4602C208.679 60.4329 209.966 60.1286 211.224 59.724C214.637 58.627 216.895 56.0696 219.005 53.4082C220.811 51.1286 221.294 48.3479 221.333 45.5016C221.368 43.017 221.357 40.5306 221.332 38.046C221.326 37.5094 221.528 37.3536 221.999 37.4538C222.436 37.5458 222.255 37.9148 222.255 38.1608C222.265 43.5856 222.286 49.0103 222.246 54.435C222.237 55.6723 222.542 56.6764 223.52 57.4663C223.927 57.7952 224.297 58.1788 224.639 58.576C225.472 59.5427 226.56 59.9727 227.782 60.1021C230.451 60.3827 233.129 60.2707 235.801 60.1869C237.44 60.1358 238.875 59.5573 239.934 58.2189C240.184 57.9027 240.482 57.6148 240.796 57.3597C241.689 56.6335 241.962 55.6997 241.956 54.5717C241.926 49.1707 241.943 43.7696 241.943 38.3695C241.943 38.2028 241.951 38.0342 241.941 37.8675C241.924 37.5686 242.049 37.4657 242.354 37.4329C242.961 37.3673 243.168 37.5367 243.164 38.2009C243.133 43.1473 243.137 48.0946 243.151 53.041C243.161 56.6991 242.84 55.8199 245.425 58.5159C246.339 59.4689 247.418 59.9782 248.693 60.1067C251.386 60.3773 254.088 60.2898 256.783 60.1723C258.221 60.1094 259.565 59.6803 260.524 58.4876C260.809 58.1332 261.021 58.2526 261.26 58.5323C262.099 59.5163 263.213 59.9673 264.46 60.1076C266.913 60.3846 269.375 60.2761 271.832 60.1832C272.888 60.1431 273.902 59.806 274.745 59.1099C274.956 58.9359 275.081 58.9532 275.284 59.1291C275.978 59.7304 276.836 59.9873 277.718 60.0857C280.481 60.3928 283.254 60.2853 286.022 60.1732C287.579 60.1094 288.946 59.5372 289.965 58.2744C290.309 57.849 290.722 57.4763 291.124 57.1028C291.776 56.4978 292.062 55.7853 292.056 54.8769C292.033 49.9752 292.046 45.0761 292.046 40.1771ZM289.451 56.3092C288.11 57.9373 286.348 58.4685 284.366 58.4749C282.316 58.4804 280.256 58.6544 278.219 58.2544C277.289 58.0722 276.443 57.7332 275.762 57.0317C275.354 56.6099 274.801 56.5953 274.412 56.9661C273.401 57.93 272.176 58.3619 270.846 58.4366C268.916 58.546 266.974 58.6134 265.051 58.33C263.785 58.1442 262.715 57.5683 261.84 56.6007C261.121 55.8053 260.626 55.788 259.943 56.5771C258.919 57.7615 257.626 58.3018 256.11 58.3892C253.679 58.5305 251.247 58.6498 248.826 58.217C247.16 57.9191 246.14 56.7511 245.18 55.5193C244.864 55.1138 244.868 54.5835 244.869 54.0733C244.874 48.3142 244.873 42.5551 244.872 36.796C244.872 35.7674 244.795 35.6908 243.774 35.6899C242.914 35.689 242.054 35.6872 241.193 35.6899C240.349 35.6927 240.249 35.7911 240.248 36.6457C240.246 42.0467 240.247 47.4468 240.247 52.8479C240.247 53.3262 240.242 53.8036 240.247 54.282C240.254 55.0136 239.939 55.5739 239.485 56.1479C238.059 57.9501 236.142 58.5095 233.97 58.4831C231.943 58.4594 229.912 58.6316 227.897 58.218C226.268 57.8845 225.266 56.7401 224.315 55.5375C223.928 55.0491 223.987 54.4059 223.987 53.8064C223.987 48.1192 223.987 42.4312 223.987 36.7441C223.987 35.7756 223.899 35.6972 222.915 35.6881C222.247 35.6817 221.58 35.7191 220.916 35.5815C220.004 35.3929 219.733 35.6398 219.732 36.6083C219.729 39.0938 219.742 41.5793 219.726 44.0639C219.717 45.5946 219.57 47.1106 219.205 48.6067C218.068 53.277 213.035 58.3018 207.221 58.648C204.688 58.7992 202.161 58.8548 199.635 58.627C196.139 58.3127 193.138 56.9707 190.826 54.2528C190.532 53.9066 190.217 53.6661 189.683 53.6469C188.91 53.6196 188.574 53.8893 188.181 54.5863C187.159 56.4003 185.704 57.7961 183.541 58.2061C181.244 58.6416 178.922 58.5314 176.61 58.433C174.581 58.3464 173.088 57.2121 171.826 55.7315C171.468 55.3115 171.068 55.1457 170.518 55.1767C170.16 55.1976 170.012 55.3534 169.799 55.6195C168.908 56.7329 168.056 57.961 166.529 58.248C164.33 58.6617 162.096 58.6917 159.909 58.2571C157.859 57.8499 156.266 55.6814 156.266 53.6114C156.265 45.1991 156.352 36.786 156.223 28.3765C156.17 24.9525 158.947 22.0789 162.155 21.893C164.355 21.7655 166.549 21.7627 168.744 21.8147C170.783 21.863 172.458 22.7003 173.785 24.2865C174.493 25.1329 174.917 25.0837 175.578 24.2464C176.901 22.57 178.53 21.5833 180.756 21.7664C181.682 21.842 182.62 21.7864 183.552 21.7837C185.028 21.7791 186.308 22.1937 187.315 23.3572C187.922 24.0606 188.2 24.0478 188.826 23.3581C189.606 22.498 190.567 22.0479 191.695 21.8994C194.124 21.5796 196.557 21.6634 198.99 21.8293C200.923 21.9614 202.221 23.1194 203.342 24.5425C203.822 25.153 204.351 25.1174 204.832 24.4833C205.978 22.9727 207.33 21.8138 209.384 21.7646C211.534 21.7126 213.682 21.5814 215.819 21.9286C216.438 22.0297 217.032 22.232 217.529 22.6174C217.885 22.8934 218.168 22.918 218.429 22.5445C218.966 21.7755 219.705 21.658 220.602 21.6616C227.676 21.6962 234.749 21.6944 241.822 21.6698C243.375 21.6643 244.763 21.9286 245.791 23.2178C246.126 23.6378 246.647 23.7043 246.998 23.3654C248.468 21.9486 250.336 21.6953 252.217 21.5067C255.742 21.155 259.279 21.0976 262.81 21.3755C266.352 21.6552 269.598 22.7076 272.149 25.3461C272.673 25.8891 273.316 25.5848 273.909 25.6359C274.036 25.6468 274.077 25.5056 274.128 25.3908C275.024 23.3544 276.531 22.0889 278.783 21.9067C281.354 21.699 283.931 21.6115 286.496 22.0479C288.119 22.324 289.077 23.4993 290.04 24.6573C290.338 25.0163 290.343 25.4937 290.343 25.9575C290.337 30.6889 290.34 35.4211 290.34 40.1525C290.34 44.7892 290.328 49.4249 290.351 54.0606C290.352 54.9626 290.015 55.6222 289.451 56.3092Z" fill="#53C100"/>
<path d="M111.824 29.7258C109.895 28.9622 107.868 28.6516 105.802 28.6087C102.934 28.5486 100.066 28.5814 97.2543 29.2492C94.4125 29.9244 93.2918 31.3739 93.2909 34.2822C93.29 37.3891 93.2909 40.495 93.2909 43.6019C93.2909 46.8518 93.29 50.1018 93.2909 53.3517C93.2918 55.3106 94.1301 56.7884 95.8256 57.7806C96.468 58.1568 97.1467 58.4493 97.8601 58.6498C100.983 59.5262 104.167 59.6538 107.375 59.3568C112.851 58.8493 117.054 55.4727 118.69 50.2165C119.915 46.2769 120.024 42.2662 119.07 38.2637C118.106 34.2202 115.75 31.2801 111.824 29.7258ZM108.759 48.3615C108.567 49.1578 108.22 49.8949 107.632 50.4881C106.822 51.3035 104.782 51.6461 103.715 51.1714C103.367 51.0165 103.493 50.7286 103.492 50.4926C103.482 48.3898 103.485 46.2869 103.485 44.1841C103.485 42.1287 103.505 40.0732 103.472 38.0186C103.463 37.4847 103.611 37.2287 104.148 37.1795C106.329 36.9782 108.15 37.1613 108.804 40.1971C109.39 42.9158 109.414 45.6464 108.759 48.3615Z" fill="#F2B205"/>
<path d="M139.287 40.6663C139.765 38.9571 139.751 37.2241 139.324 35.4985C139.253 35.2115 139.126 34.9865 138.867 34.8079C137.165 33.6344 133.944 33.9651 132.563 35.494C132.235 35.8584 131.985 36.293 131.63 36.7914C131.572 35.5104 130.774 35.0074 129.804 34.7532C127.876 34.2485 125.922 34.2476 123.993 34.7295C122.613 35.0739 122.117 35.7937 122.117 37.2077C122.117 43.5618 122.117 49.915 122.117 56.269C122.117 57.8206 122.654 58.5441 124.181 58.9112C125.85 59.3121 127.544 59.3476 129.223 58.9805C131.55 58.4721 131.649 57.5573 131.631 55.9875C131.586 51.8793 131.614 47.7711 131.622 43.662C131.623 43.4233 131.504 43.1454 131.744 42.9259C132.856 43.5153 134.033 43.7759 135.274 43.7112C137.41 43.5992 138.743 42.6124 139.287 40.6663Z" fill="#F2B205"/>
<path d="M145.139 50.3059C144.477 50.1811 143.813 50.1474 143.144 50.1793C142.738 50.1793 142.328 50.1401 141.927 50.1865C140.174 50.3897 138.6 50.9145 137.798 52.6894C137.413 53.5403 137.396 54.4487 137.437 55.3607C137.519 57.2048 138.501 58.5223 140.265 59.0799C141.965 59.6174 143.696 59.6302 145.426 59.2348C147.566 58.7455 148.642 57.6339 148.869 55.4874C149.157 52.7732 147.998 50.8462 145.139 50.3059Z" fill="#F2B205"/>
<path d="M184.097 24.661C182.705 24.2501 181.305 24.2729 179.892 24.6255C178.576 24.9535 177.527 25.9302 177.596 27.6686C177.669 29.5053 177.59 31.3476 177.62 33.1871C177.641 34.4736 177.708 35.761 177.804 37.0438C177.914 38.5326 178.079 40.0177 178.219 41.5046C178.171 41.5165 178.122 41.5292 178.074 41.542C177.204 39.2897 176.348 37.032 175.459 34.7879C174.427 32.1794 173.553 29.5063 172.216 27.0226C171.593 25.8655 170.689 25.1311 169.423 24.7895C167.174 24.1817 164.918 24.2838 162.651 24.6546C160.095 25.0719 158.872 26.3529 158.85 29.0316C158.785 36.9883 158.822 44.945 158.831 52.9017C158.832 54.128 159.373 55.0829 160.546 55.5147C162.342 56.1744 164.176 56.157 165.957 55.461C166.933 55.0792 167.553 54.2938 167.562 53.2169C167.59 49.9223 167.657 46.6241 167.397 43.3378C167.329 42.4904 167.296 41.634 167.185 40.783C167.063 39.851 166.954 38.9052 166.916 37.9559C168.067 40.7211 169.17 43.4981 170.299 46.2642C171.224 48.5311 171.989 50.8663 173.259 52.9837C174.122 54.4232 175.332 55.4145 176.968 55.748C178.657 56.0924 180.392 56.065 182.073 55.7279C185.065 55.1275 186.216 53.6178 186.216 50.551C186.216 42.8813 186.216 35.2107 186.216 27.541C186.216 26.0058 185.565 25.0947 184.097 24.661Z" fill="#53C100"/>
<path d="M270.764 44.6625C270.607 44.3054 270.635 44.1122 270.906 43.8243C271.823 42.8476 272.518 41.7251 272.984 40.4614C273.821 38.1973 273.863 35.8694 273.545 33.5206C273.201 30.9877 272.086 28.8494 270.157 27.1501C267.622 24.917 264.537 24.0196 261.287 23.8401C258.133 23.6661 254.944 23.6032 251.816 24.241C249.462 24.7211 247.351 25.5384 247.432 29.3222C247.513 33.1206 247.45 36.9218 247.45 40.722C247.45 44.6653 247.494 48.6095 247.432 52.5527C247.4 54.5799 248.552 55.2824 249.817 55.6068C251.8 56.1142 253.837 56.1024 255.823 55.7124C257.729 55.338 258.75 54.5517 258.641 52.212C258.591 51.1387 258.632 50.0618 258.632 48.9857C258.632 47.4369 258.632 47.4551 260.177 47.446C260.611 47.4432 260.768 47.5781 260.879 47.9963C261.38 49.8859 261.958 51.75 262.935 53.4647C263.525 54.5025 264.357 55.2505 265.505 55.5767C267.247 56.0723 269.029 56.0887 270.785 55.7161C272.158 55.4255 273.244 54.6428 273.897 53.3454C274.136 52.8716 274.139 52.4379 273.914 51.9304C272.846 49.516 271.828 47.0797 270.764 44.6625ZM263.183 36.428C263.076 37.2179 263.049 38.0197 262.68 38.7695C262.035 40.0778 260.376 40.9607 258.96 40.7038C258.577 40.6336 258.477 40.445 258.483 40.0706C258.506 38.8287 258.491 37.5851 258.491 36.3423C258.491 35.0996 258.506 33.8568 258.483 32.6141C258.476 32.2031 258.571 32.0437 258.999 32.1731C259.476 32.3179 259.983 32.2551 260.473 32.3899C262.289 32.891 263.437 34.5529 263.183 36.428Z" fill="#53C100"/>
<path d="M214.907 24.6737C213.116 24.1899 211.277 24.2154 209.471 24.558C207.612 24.9106 207.01 25.7433 207.01 27.6156C207.01 32.8263 207.009 38.036 207.011 43.2457C207.011 44.1741 206.999 45.098 206.875 46.0237C206.675 47.5279 205.746 48.5 204.323 48.6039C202.573 48.7315 201.604 48.0973 201.201 46.4983C201.069 45.9754 200.977 45.4378 200.98 44.8839C200.994 41.992 200.987 39.1001 200.987 36.2083C200.987 33.3401 200.987 30.4729 200.987 27.6047C200.987 26.0139 200.485 25.2586 198.914 24.8049C196.542 24.1197 194.139 24.1334 191.767 24.814C190.436 25.1957 189.803 26.0804 189.809 27.3614C189.836 32.2596 189.867 37.1568 189.916 42.0549C189.935 43.9281 189.887 45.8077 190.371 47.6482C190.972 49.9223 191.97 51.9431 193.83 53.4729C196.047 55.2969 198.68 55.9975 201.448 56.1779C203.386 56.3037 205.346 56.3328 207.278 55.9228C210.26 55.2896 212.78 53.9357 214.619 51.4238C216.244 49.2025 216.987 46.6769 217.024 43.9882C217.1 38.4924 217.01 32.9939 217.069 27.4981C217.088 25.7488 216.113 24.9989 214.907 24.6737Z" fill="#53C100"/>
<path d="M241.049 24.3685C234.501 24.3685 227.953 24.3813 221.405 24.3494C220.729 24.3458 220.351 24.569 220.064 25.132C219.124 26.9716 218.956 28.8749 219.619 30.8256C220.107 32.2633 221.356 33.1106 222.872 33.1152C223.876 33.1179 224.881 33.1516 225.882 33.1024C226.484 33.0723 226.678 33.2008 226.674 33.8623C226.644 40.1708 226.656 46.4802 226.656 52.7896C226.656 54.2875 227.146 54.9799 228.576 55.4838C230.399 56.127 232.289 55.9575 234.156 55.8591C235.006 55.8145 235.861 55.5758 236.62 55.0811C237.344 54.61 237.706 54.0023 237.703 53.1368C237.691 49.9342 237.698 46.7326 237.698 43.53C237.698 40.2564 237.706 36.9819 237.689 33.7083C237.686 33.2591 237.778 33.0906 238.268 33.1042C239.558 33.1407 240.855 33.0377 242.138 33.137C243.729 33.26 244.142 32.5148 244.627 31.4132C245.191 30.1304 245.179 28.7446 244.908 27.4262C244.427 25.0828 243.431 24.3685 241.049 24.3685Z" fill="#53C100"/>
<path d="M287.747 40.1562C287.747 35.904 287.747 31.651 287.747 27.3989C287.747 26.0522 287.311 25.4464 286.039 24.927C285.284 24.6191 284.491 24.5088 283.698 24.4359C281.868 24.2674 280.037 24.2874 278.291 24.9607C277.223 25.3726 276.682 26.1288 276.686 27.367C276.72 35.8239 276.703 44.2808 276.703 52.7377C276.703 54.3029 277.17 54.9699 278.638 55.4874C280.461 56.1297 282.349 55.9511 284.215 55.8591C285.047 55.8181 285.88 55.5821 286.622 55.1193C287.368 54.6537 287.755 54.0333 287.752 53.1303C287.739 48.8044 287.747 44.4803 287.747 40.1562Z" fill="#53C100"/>
<path d="M15.6938 44.872C16.0208 46.6942 16.5611 48.4481 17.2955 50.1464C18.6193 53.2095 20.5554 55.8362 22.9462 58.1432C23.7999 58.9668 24.7857 59.2693 25.9209 58.8365C27.406 58.2698 27.929 57.0845 27.734 55.777C27.5573 54.5889 27.0999 53.4747 26.5778 52.3923C25.4262 50.0033 23.9867 47.7766 22.6974 45.4651C21.5367 43.3832 20.5044 41.244 19.8785 38.9334C19.627 38.005 19.3473 37.0747 19.3919 36.0935C19.4138 35.617 19.7318 35.3427 20.119 35.1486C20.4871 34.9628 20.8616 34.9491 21.2214 35.2015C21.5649 35.442 21.759 35.7901 21.9266 36.1545C22.9152 38.2965 24.1689 40.2682 25.7442 42.0248C26.8785 43.2894 28.1422 44.4192 29.5271 45.4059C30.1621 45.8587 30.8236 46.2714 31.5461 46.6049C31.5507 46.553 31.5643 46.5202 31.5543 46.4974C31.0942 45.4241 30.7999 44.2998 30.7079 43.1418C30.6259 42.1168 30.6888 41.09 30.9557 40.0814C31.4659 38.1553 32.4937 36.5718 34.017 35.2917C35.4785 34.0635 37.1713 33.3993 39.0536 33.2408C39.8955 33.1697 40.7456 33.218 41.5883 33.3929C43.6903 33.8275 45.4396 34.837 46.8336 36.4716C48.0964 37.953 48.7815 39.6823 48.9628 41.5975C49.0722 42.7555 48.9647 43.9153 48.6075 45.0396C48.0235 46.8728 46.9739 48.3861 45.4605 49.5633C44.5294 50.2867 43.5071 50.858 42.3455 51.1413C41.9491 51.2379 41.5546 51.3399 41.1592 51.4392C41.161 51.4666 41.1619 51.4948 41.1638 51.5222C41.4562 51.5222 41.7505 51.5085 42.0421 51.5249C42.5404 51.554 42.9832 51.3472 43.447 51.2251C45.435 50.7049 47.3693 50.0371 49.2207 49.1433C51.7189 47.936 53.9949 46.4045 55.9948 44.4702C56.4494 44.0301 56.8631 43.5472 57.3623 43.1518C58.3044 42.4065 59.2912 42.7491 59.7585 43.5345C60.1385 44.1723 59.9882 44.8164 59.6456 45.4177C58.4903 47.445 56.9942 49.2152 55.4162 50.9154C54.3584 52.0552 53.2323 53.1293 52.0725 54.1689C50.7122 55.388 49.2799 56.5178 47.8595 57.6621C46.4992 58.7582 46.5174 60.697 47.8003 61.866C48.7706 62.7506 49.8867 62.8336 51.0156 62.2422C53.7981 60.7854 56.2872 58.9367 58.4037 56.5988C59.4943 55.3953 60.4492 54.0988 61.2637 52.6966C63.3073 49.1797 64.2849 45.3485 64.5309 41.3232C64.6102 40.0194 64.6038 38.7029 64.4426 37.3927C64.3369 36.5299 64.2139 35.6734 64.0326 34.8243C63.4677 32.1757 62.4272 29.723 61.0159 27.4216C60.3079 26.2672 59.508 25.1793 58.6424 24.1397C58.3254 23.7589 58.0256 23.3553 57.6256 23.0482C57.4407 22.9061 57.2621 22.8915 57.0571 23.0236C56.8466 23.1594 56.7218 23.3644 56.5852 23.5557C55.8827 24.5434 55.0873 25.4372 54.1115 26.1688C52.015 27.7404 49.6443 28.5085 47.045 28.6142C46.3489 28.6424 45.6564 28.5531 44.9731 28.4365C44.5021 28.3554 44.0292 28.257 43.5199 28.0393C43.6584 28.0393 43.7258 28.0375 43.7932 28.0393C44.8337 28.0693 45.8742 28.0384 46.8892 27.7978C49.1678 27.2566 51.083 26.115 52.548 24.2664C54.3174 22.0333 55.0253 19.5022 54.691 16.6696C54.5634 15.5926 54.2801 14.5686 53.8327 13.5827C52.9225 11.5756 51.4857 10.0558 49.556 9.01354C47.854 8.09515 46.0291 7.66692 44.0866 7.72979C43.5135 7.74801 42.9459 7.79721 42.3947 7.92477C40.6845 8.3211 39.163 9.10921 37.8674 10.2927C36.3759 11.6567 35.3381 13.3103 34.8434 15.2856C34.7086 15.8259 34.3961 16.1958 33.8312 16.3152C32.367 16.6258 30.9767 17.1479 29.6246 17.7784C27.3614 18.8344 25.2959 20.1946 23.4236 21.8456C22.292 22.8441 21.277 23.9539 20.3495 25.1447C19.0721 26.7829 18.0235 28.5568 17.2117 30.4665C16.388 32.4044 15.8122 34.4143 15.5161 36.5053C15.3721 37.5239 15.2819 38.5443 15.2437 39.5684C15.2091 40.4859 15.2619 41.4016 15.3457 42.3172C15.4259 43.1755 15.5416 44.0247 15.6938 44.872Z" fill="#53C100"/>
<path d="M64.7188 68.6866C64.1165 68.1381 63.4068 68.1818 62.6952 68.4497C62.4246 68.5517 62.1667 68.6866 61.8934 68.8105C61.8834 68.7011 61.867 68.6164 61.908 68.5326C62.0984 68.1417 62.1585 67.7263 62.1877 67.2944C62.2588 66.2512 61.2502 65.4877 60.5031 65.5086C59.6976 65.5314 59.0134 65.843 58.3346 66.2093C58.0932 66.3396 57.8536 66.4753 57.5547 66.6402C57.6185 66.4653 57.6586 66.3605 57.695 66.2548C57.9064 65.6371 58.0531 65.0175 57.8508 64.3606C57.5429 63.3612 56.4823 62.8528 55.3571 63.1179C54.3276 63.3602 53.5076 63.9525 52.7295 64.6249C52.0462 65.2153 51.3811 65.8293 50.6677 66.3806C49.3247 67.4183 47.8779 68.2893 46.3135 68.9635C44.6206 69.6924 42.8549 70.1398 41.0209 70.2555C40.1808 70.3083 39.3308 70.3001 38.4825 70.2227C37.5259 70.1352 36.5847 69.9813 35.6581 69.7444C34.5219 69.4546 33.3995 69.1148 32.3462 68.5864C32.0082 68.4169 31.692 68.2028 31.4752 67.8739C32.3672 67.6188 33.2683 67.5614 34.1484 67.38C36.6466 66.8671 38.9745 65.9624 41.0655 64.4809C41.9055 63.8859 42.7392 63.2792 43.3661 62.4519C43.8918 61.7585 44.1332 60.9604 43.9783 60.0903C43.8344 59.2803 43.3096 58.7637 42.5688 58.4521C41.8755 58.1605 41.1612 58.1241 40.415 58.2116C39.3362 58.3382 38.2848 58.5678 37.268 58.9313C36.2804 59.2839 35.3173 59.7076 34.3333 60.0721C32.625 60.7053 30.8711 61.1599 29.0644 61.4205C28.1487 61.5526 27.2322 61.6783 26.3083 61.6884C25.2696 61.6993 24.2301 61.7321 23.1896 61.6501C22.5236 61.5982 21.8548 61.5471 21.1961 61.4533C20.1201 61.2993 19.0513 61.0934 17.9917 60.8347C14.6161 60.0119 11.4828 58.6361 8.56085 56.7675C7.09943 55.8327 5.70362 54.8113 4.42716 53.6314C3.71831 52.9764 3.03681 52.2967 2.3799 51.5896C2.01454 51.196 1.6829 50.7687 1.23828 50.3788C1.24466 50.489 1.23737 50.5492 1.25286 50.6029C2.31157 54.21 3.72105 57.664 5.71364 60.8656C6.95457 62.8591 8.34309 64.7451 9.90382 66.4981C10.866 67.5787 11.8919 68.5973 12.9615 69.5749C14.0111 70.5334 15.1081 71.4345 16.2561 72.269C19.2864 74.4703 22.5536 76.2351 26.0723 77.5316C28.033 78.2541 30.0347 78.8281 32.0811 79.2372C33.2801 79.4768 34.49 79.6554 35.71 79.7784C36.7869 79.8868 37.8639 79.977 38.9445 79.9907C39.8483 80.0016 40.7521 80.0144 41.6586 79.9561C42.3647 79.9114 43.0754 79.8859 43.7779 79.8121C44.8238 79.7019 45.8661 79.5543 46.9039 79.3693C48.4601 79.0923 49.9953 78.7333 51.5104 78.2851C54.4724 77.4095 57.2914 76.1968 59.971 74.6643C61.6009 73.7323 63.1671 72.7 64.6231 71.5101C65.5023 70.7958 65.5515 69.4455 64.7188 68.6866Z" fill="#53C100"/>
<path d="M80.0845 40.0422C80.0845 17.9279 62.1566 0 40.0422 0C17.9279 0 0 17.9279 0 40.0422C0 42.3364 0.194066 44.5859 0.563975 46.7753C1.73384 47.937 3.9952 49.9451 7.58588 52.2055C6.16728 48.4208 5.39102 44.3226 5.39102 40.0432C5.39102 20.9054 20.9054 5.39102 40.0432 5.39102C59.181 5.39102 74.6953 20.9054 74.6953 40.0432C74.6953 49.9979 70.4969 58.9723 63.7748 65.2927C65.0512 65.4439 67.2352 66.0908 68.0132 68.6975C75.4606 61.425 80.0845 51.2735 80.0845 40.0422Z" fill="#F2B205"/>
</svg>
