<svg width="172" height="47" viewBox="0 0 172 47" fill="none" xmlns="http://www.w3.org/2000/svg">
<path d="M171.577 23.6041C171.577 21.1333 171.59 18.6619 171.574 16.1911C171.559 13.9183 171.848 14.5264 170.199 12.8301C169.712 12.3296 169.148 12.0384 168.473 11.9597C166.766 11.7606 165.052 11.8243 163.343 11.9094C162.52 11.9501 161.795 12.2723 161.251 12.9393C161.039 13.1989 160.77 13.4114 160.544 13.6603C160.393 13.8257 160.289 13.8134 160.138 13.6576C159.825 13.3338 159.464 13.0645 159.082 12.8258C157.507 11.8419 155.751 11.5106 153.935 11.4731C152.041 11.4335 150.143 11.3912 148.253 11.5518C147.082 11.6514 145.888 11.7247 144.894 12.48C144.748 12.5913 144.668 12.5266 144.577 12.4286C144.121 11.9383 143.537 11.7981 142.896 11.7981C138.165 11.7991 133.434 11.7981 128.702 11.7997C128.578 11.7997 128.39 11.7804 128.34 11.8484C128.04 12.2675 127.69 12.0726 127.334 11.9779C127.118 11.9206 126.893 11.896 126.67 11.8735C125.55 11.7606 124.425 11.8387 123.303 11.8157C122.039 11.7895 120.901 12.0652 120.104 13.1491C119.906 13.4194 119.754 13.3793 119.56 13.1427C119.008 12.4671 118.331 11.9993 117.433 11.918C115.682 11.7595 113.929 11.7483 112.179 11.9233C111.603 11.9811 111.047 12.1588 110.631 12.6047C110.475 12.7723 110.376 12.7048 110.258 12.5742C109.814 12.0817 109.232 11.8955 108.597 11.8767C107.699 11.8505 106.799 11.8885 105.902 11.843C104.678 11.7815 103.619 12.0705 102.854 13.0966C102.654 13.3659 102.492 13.3225 102.3 13.0843C101.592 12.2027 100.614 11.9147 99.5394 11.8773C98.0942 11.827 96.6468 11.8184 95.2026 11.8901C94.0796 11.9458 93.0369 12.2198 92.3009 13.1753C92.1821 13.33 92.037 13.4697 91.8845 13.5918C91.0644 14.2496 90.816 15.1601 90.8134 16.1423C90.8 21.4774 90.8064 26.8125 90.8091 32.1476C90.8096 32.7321 90.9943 33.2449 91.4343 33.6566C91.7929 33.9922 92.1403 34.3406 92.4781 34.6971C92.8121 35.0499 93.2173 35.2586 93.6915 35.3116C95.1047 35.4685 96.5221 35.424 97.9357 35.3405C98.5567 35.3041 99.0914 35.0231 99.5111 34.543C99.677 34.353 99.8857 34.1993 100.041 34.0023C100.263 33.7213 100.425 33.6897 100.677 33.9911C101.352 34.7999 102.21 35.3336 103.28 35.3657C104.808 35.4112 106.341 35.4835 107.865 35.3015C108.537 35.2212 109.205 35.0579 109.724 34.5858C110.242 34.1142 110.757 33.6287 111.205 33.0913C111.461 32.7846 111.571 32.8408 111.784 33.0886C113.109 34.6254 114.845 35.3132 116.82 35.4797C118.487 35.6205 120.159 35.5552 121.828 35.5204C122.599 35.5043 123.355 35.3255 124.094 35.0879C126.099 34.4434 127.426 32.9409 128.665 31.3774C129.727 30.0381 130.011 28.4044 130.034 26.7322C130.054 25.2725 130.047 23.8118 130.032 22.3521C130.029 22.0368 130.148 21.9453 130.425 22.0041C130.681 22.0582 130.575 22.275 130.575 22.4195C130.581 25.6066 130.593 28.7936 130.57 31.9806C130.565 32.7075 130.744 33.2974 131.318 33.7615C131.557 33.9547 131.775 34.1801 131.976 34.4134C132.465 34.9814 133.104 35.234 133.822 35.31C135.39 35.4749 136.963 35.4091 138.533 35.3598C139.496 35.3298 140.339 34.9899 140.961 34.2036C141.108 34.0179 141.283 33.8487 141.468 33.6988C141.993 33.2722 142.153 32.7236 142.149 32.0609C142.132 28.8878 142.141 25.7147 142.141 22.5421C142.141 22.4441 142.146 22.3451 142.14 22.2472C142.13 22.0716 142.204 22.0111 142.383 21.9918C142.74 21.9533 142.861 22.0529 142.859 22.4431C142.841 25.3491 142.843 28.2556 142.851 31.1616C142.857 33.3108 142.669 32.7942 144.187 34.3781C144.724 34.938 145.358 35.2372 146.107 35.3127C147.69 35.4717 149.277 35.4203 150.86 35.3512C151.705 35.3143 152.495 35.0622 153.058 34.3615C153.225 34.1533 153.35 34.2234 153.49 34.3877C153.983 34.9658 154.638 35.2308 155.37 35.3132C156.812 35.476 158.258 35.4123 159.702 35.3577C160.322 35.3341 160.918 35.1361 161.413 34.7271C161.537 34.6249 161.61 34.635 161.729 34.7383C162.137 35.0916 162.641 35.2426 163.16 35.3004C164.783 35.4808 166.412 35.4176 168.038 35.3518C168.953 35.3143 169.756 34.9782 170.355 34.2363C170.557 33.9863 170.799 33.7674 171.036 33.5479C171.418 33.1925 171.586 32.7739 171.583 32.2402C171.569 29.3604 171.577 26.4823 171.577 23.6041ZM170.052 33.0817C169.265 34.0382 168.23 34.3503 167.065 34.354C165.861 34.3572 164.65 34.4595 163.454 34.2245C162.907 34.1174 162.41 33.9183 162.01 33.5061C161.771 33.2583 161.446 33.2497 161.217 33.4676C160.623 34.0339 159.904 34.2876 159.122 34.3315C157.988 34.3958 156.848 34.4354 155.718 34.2689C154.974 34.1597 154.345 33.8214 153.831 33.253C153.409 32.7857 153.118 32.7755 152.717 33.239C152.115 33.9349 151.356 34.2523 150.465 34.3037C149.036 34.3867 147.608 34.4568 146.185 34.2025C145.206 34.0275 144.607 33.3413 144.043 32.6176C143.858 32.3794 143.86 32.0679 143.861 31.7681C143.863 28.3846 143.863 25.0012 143.862 21.6177C143.862 21.0134 143.817 20.9684 143.217 20.9679C142.712 20.9673 142.207 20.9662 141.701 20.9679C141.205 20.9695 141.146 21.0273 141.146 21.5294C141.145 24.7025 141.145 27.875 141.145 31.0482C141.145 31.3292 141.142 31.6097 141.145 31.8907C141.15 32.3205 140.964 32.6497 140.698 32.9869C139.86 34.0457 138.733 34.3744 137.457 34.3588C136.267 34.3449 135.073 34.4461 133.89 34.2031C132.933 34.0072 132.344 33.3349 131.785 32.6283C131.558 32.3414 131.592 31.9635 131.592 31.6113C131.592 28.2701 131.592 24.9284 131.592 21.5872C131.592 21.0182 131.541 20.9721 130.963 20.9668C130.57 20.963 130.179 20.985 129.788 20.9042C129.253 20.7934 129.093 20.9384 129.093 21.5074C129.091 22.9676 129.098 24.4279 129.089 25.8876C129.084 26.7868 128.997 27.6775 128.783 28.5565C128.115 31.3003 125.158 34.2523 121.743 34.4557C120.255 34.5446 118.77 34.5772 117.285 34.4434C115.232 34.2587 113.469 33.4703 112.11 31.8736C111.937 31.6702 111.753 31.5288 111.439 31.5176C110.985 31.5015 110.787 31.66 110.556 32.0695C109.956 33.1352 109.101 33.9552 107.83 34.1961C106.481 34.452 105.117 34.3872 103.758 34.3294C102.566 34.2786 101.69 33.6121 100.948 32.7423C100.737 32.4955 100.502 32.3981 100.18 32.4163C99.9693 32.4286 99.882 32.5202 99.7573 32.6765C99.2338 33.3306 98.7333 34.0521 97.8356 34.2207C96.544 34.4638 95.2315 34.4814 93.9469 34.2261C92.7425 33.9868 91.8063 32.7129 91.8063 31.4967C91.8058 26.5545 91.8572 21.6118 91.7811 16.6712C91.7501 14.6596 93.3816 12.9714 95.2663 12.8622C96.5585 12.7872 97.8474 12.7856 99.1374 12.8161C100.335 12.8445 101.319 13.3364 102.099 14.2683C102.515 14.7656 102.764 14.7367 103.152 14.2448C103.929 13.2599 104.886 12.6802 106.195 12.7878C106.738 12.8322 107.289 12.7996 107.837 12.7979C108.704 12.7953 109.456 13.0388 110.047 13.7224C110.404 14.1356 110.568 14.1281 110.935 13.7229C111.394 13.2176 111.958 12.9532 112.621 12.8659C114.048 12.678 115.477 12.7273 116.907 12.8247C118.042 12.9023 118.805 13.5827 119.463 14.4188C119.746 14.7774 120.057 14.7565 120.339 14.384C121.012 13.4965 121.806 12.8156 123.013 12.7867C124.276 12.7562 125.538 12.6791 126.794 12.8831C127.157 12.9425 127.507 13.0613 127.798 13.2877C128.008 13.4499 128.174 13.4644 128.327 13.2449C128.643 12.7931 129.077 12.7241 129.604 12.7262C133.76 12.7466 137.915 12.7455 142.071 12.731C142.983 12.7278 143.798 12.8831 144.402 13.6405C144.599 13.8872 144.905 13.9263 145.111 13.7272C145.975 12.8948 147.072 12.746 148.178 12.6352C150.249 12.4286 152.327 12.3949 154.401 12.5581C156.482 12.7225 158.389 13.3407 159.887 14.8909C160.196 15.2099 160.573 15.0311 160.922 15.0611C160.996 15.0675 161.021 14.9845 161.051 14.9171C161.577 13.7208 162.462 12.9773 163.785 12.8702C165.296 12.7482 166.81 12.6968 168.316 12.9532C169.27 13.1154 169.833 13.8059 170.399 14.4862C170.574 14.6971 170.577 14.9776 170.577 15.25C170.573 18.0297 170.575 20.8099 170.575 23.5896C170.575 26.3137 170.568 29.0371 170.581 31.7606C170.582 32.2905 170.384 32.6781 170.052 33.0817Z" fill="black"/>
<path d="M65.6966 17.464C64.5634 17.0154 63.3725 16.8329 62.159 16.8078C60.4739 16.7724 58.7889 16.7917 57.137 17.1841C55.4675 17.5807 54.8091 18.4323 54.8086 20.1409C54.8081 21.9662 54.8086 23.791 54.8086 25.6162C54.8086 27.5256 54.8081 29.4349 54.8086 31.3442C54.8091 32.4951 55.3016 33.3633 56.2977 33.9462C56.6751 34.1673 57.0739 34.3391 57.493 34.4569C59.3279 34.9718 61.1982 35.0467 63.0829 34.8722C66.3004 34.5741 68.7696 32.5904 69.7305 29.5023C70.4504 27.1878 70.5141 24.8315 69.9537 22.4801C69.3874 20.1045 68.0031 18.3772 65.6966 17.464ZM63.896 28.4125C63.783 28.8804 63.5796 29.3134 63.2338 29.6619C62.758 30.1409 61.5595 30.3422 60.9327 30.0633C60.7282 29.9723 60.8021 29.8032 60.8015 29.6645C60.7956 28.4291 60.7978 27.1937 60.7978 25.9583C60.7978 24.7507 60.8096 23.5431 60.7898 22.3361C60.7844 22.0224 60.8717 21.872 61.1869 21.8431C62.4684 21.7248 63.5384 21.8324 63.9227 23.6159C64.2669 25.2132 64.2808 26.8174 63.896 28.4125Z" fill="black"/>
<path d="M81.8309 23.8915C82.1119 22.8873 82.1039 21.8692 81.8529 20.8554C81.8111 20.6868 81.7367 20.5546 81.5847 20.4497C80.5843 19.7602 78.6921 19.9545 77.8811 20.8527C77.6879 21.0668 77.5412 21.3222 77.333 21.615C77.2987 20.8624 76.8298 20.5669 76.2598 20.4175C75.1271 20.121 73.9795 20.1205 72.8458 20.4036C72.0354 20.606 71.7437 21.0288 71.7437 21.8596C71.7437 25.5926 71.7437 29.3251 71.7437 33.0581C71.7437 33.9697 72.0595 34.3947 72.9566 34.6104C73.9372 34.8459 74.9323 34.8668 75.9188 34.6511C77.2859 34.3524 77.3437 33.815 77.3335 32.8927C77.3068 30.4791 77.3234 28.0656 77.3282 25.6515C77.3287 25.5112 77.2586 25.348 77.3999 25.219C78.0529 25.5653 78.7445 25.7184 79.4736 25.6804C80.7282 25.6145 81.5114 25.0348 81.8309 23.8915Z" fill="black"/>
<path d="M85.2696 29.5547C84.8804 29.4813 84.4902 29.4615 84.0973 29.4803C83.8586 29.4803 83.6177 29.4572 83.3822 29.4845C82.3523 29.6039 81.4274 29.9122 80.9563 30.9549C80.7304 31.4549 80.7203 31.9886 80.7443 32.5244C80.7925 33.6078 81.3695 34.3818 82.4058 34.7094C83.4047 35.0252 84.4217 35.0327 85.4382 34.8004C86.695 34.5129 87.3272 33.8599 87.4604 32.5988C87.6296 31.0042 86.9493 29.8721 85.2696 29.5547Z" fill="black"/>
<path d="M108.157 14.4884C107.34 14.247 106.517 14.2603 105.687 14.4675C104.914 14.6602 104.297 15.234 104.338 16.2553C104.381 17.3344 104.334 18.4168 104.352 19.4975C104.364 20.2533 104.404 21.0096 104.46 21.7633C104.525 22.6379 104.621 23.5104 104.704 24.384C104.675 24.391 104.647 24.3985 104.619 24.406C104.108 23.0828 103.604 21.7563 103.082 20.438C102.476 18.9055 101.963 17.335 101.177 15.8758C100.811 15.196 100.28 14.7646 99.5363 14.5638C98.2147 14.2068 96.8893 14.2668 95.5576 14.4846C94.0561 14.7298 93.3372 15.4824 93.3244 17.0561C93.2864 21.7307 93.3083 26.4052 93.3132 31.0798C93.3137 31.8003 93.6317 32.3612 94.3211 32.6149C95.3761 33.0025 96.4536 32.9923 97.5001 32.5834C98.0734 32.3591 98.4374 31.8977 98.4427 31.265C98.4593 29.3294 98.4984 27.3917 98.3458 25.461C98.3062 24.9632 98.2864 24.46 98.2211 23.9601C98.1499 23.4125 98.0857 22.8569 98.0632 22.2991C98.7393 23.9237 99.3875 25.5552 100.051 27.1803C100.594 28.5121 101.044 29.884 101.79 31.1279C102.297 31.9737 103.008 32.5561 103.969 32.752C104.961 32.9543 105.98 32.9382 106.968 32.7402C108.726 32.3875 109.402 31.5005 109.402 29.6988C109.402 25.1928 109.402 20.6863 109.402 16.1804C109.402 15.2784 109.02 14.7432 108.157 14.4884Z" fill="black"/>
<path d="M159.074 26.2392C158.982 26.0294 158.998 25.9159 159.157 25.7468C159.696 25.173 160.104 24.5135 160.378 23.7711C160.87 22.4409 160.894 21.0733 160.708 19.6934C160.506 18.2053 159.851 16.949 158.717 15.9507C157.228 14.6387 155.416 14.1115 153.507 14.0061C151.653 13.9038 149.78 13.8669 147.942 14.2416C146.559 14.5237 145.319 15.0038 145.367 17.2268C145.414 19.4584 145.377 21.6915 145.377 23.9242C145.377 26.2408 145.403 28.558 145.367 30.8747C145.348 32.0657 146.024 32.4784 146.768 32.669C147.933 32.9671 149.13 32.9602 150.296 32.7311C151.416 32.5111 152.016 32.0491 151.952 30.6745C151.922 30.044 151.947 29.4113 151.947 28.7791C151.947 27.8692 151.947 27.8799 152.854 27.8745C153.109 27.8729 153.201 27.9521 153.267 28.1978C153.561 29.308 153.9 30.4031 154.474 31.4105C154.821 32.0202 155.31 32.4597 155.984 32.6513C157.008 32.9425 158.055 32.9521 159.086 32.7332C159.893 32.5624 160.531 32.1026 160.915 31.3404C161.055 31.0621 161.057 30.8073 160.925 30.5091C160.297 29.0906 159.699 27.6593 159.074 26.2392ZM154.62 21.4014C154.557 21.8655 154.542 22.3365 154.324 22.7771C153.945 23.5457 152.971 24.0644 152.139 23.9135C151.914 23.8722 151.855 23.7614 151.859 23.5414C151.872 22.8119 151.864 22.0812 151.864 21.3511C151.864 20.621 151.872 19.8909 151.859 19.1608C151.855 18.9193 151.911 18.8257 152.162 18.9017C152.442 18.9868 152.74 18.9499 153.028 19.0291C154.095 19.3235 154.769 20.2998 154.62 21.4014Z" fill="black"/>
<path d="M126.258 14.4958C125.206 14.2116 124.125 14.2266 123.064 14.4278C121.972 14.635 121.618 15.1242 121.618 16.2242C121.618 19.2855 121.618 22.3462 121.619 25.4069C121.619 25.9523 121.612 26.4951 121.539 27.0389C121.421 27.9227 120.876 28.4938 120.04 28.5548C119.012 28.6298 118.443 28.2572 118.206 27.3178C118.128 27.0106 118.074 26.6947 118.076 26.3693C118.084 24.6703 118.08 22.9714 118.08 21.2724C118.08 19.5874 118.08 17.9028 118.08 16.2178C118.08 15.2832 117.785 14.8395 116.862 14.5729C115.469 14.1704 114.057 14.1784 112.663 14.5782C111.881 14.8025 111.509 15.3223 111.513 16.0749C111.529 18.9525 111.547 21.8296 111.576 24.7073C111.587 25.8078 111.558 26.9121 111.843 27.9933C112.196 29.3294 112.783 30.5166 113.875 31.4153C115.177 32.487 116.724 32.8986 118.351 33.0046C119.489 33.0784 120.641 33.0956 121.776 32.8547C123.528 32.4827 125.008 31.6873 126.089 30.2115C127.043 28.9065 127.48 27.4227 127.502 25.8431C127.547 22.6143 127.494 19.384 127.528 16.1552C127.539 15.1274 126.966 14.6869 126.258 14.4958Z" fill="black"/>
<path d="M141.617 14.3164C137.77 14.3164 133.923 14.3239 130.076 14.3052C129.678 14.3031 129.456 14.4342 129.288 14.765C128.736 15.8457 128.637 16.9639 129.026 18.1099C129.313 18.9546 130.047 19.4524 130.937 19.4551C131.527 19.4567 132.118 19.4765 132.706 19.4476C133.06 19.4299 133.174 19.5054 133.172 19.894C133.153 23.6003 133.161 27.307 133.161 31.0138C133.161 31.8938 133.449 32.3006 134.289 32.5966C135.36 32.9745 136.47 32.875 137.567 32.8172C138.066 32.7909 138.569 32.6507 139.015 32.36C139.44 32.0833 139.653 31.7263 139.651 31.2178C139.644 29.3363 139.648 27.4553 139.648 25.5738C139.648 23.6506 139.653 21.7268 139.642 19.8036C139.641 19.5397 139.695 19.4406 139.983 19.4487C140.74 19.4701 141.503 19.4096 142.256 19.4679C143.191 19.5402 143.434 19.1023 143.719 18.4552C144.05 17.7015 144.043 16.8874 143.884 16.1128C143.601 14.7361 143.016 14.3164 141.617 14.3164Z" fill="black"/>
<path d="M169.051 23.5917C169.051 21.0935 169.051 18.5949 169.051 16.0968C169.051 15.3056 168.796 14.9497 168.048 14.6445C167.605 14.4636 167.138 14.3989 166.673 14.356C165.597 14.257 164.522 14.2688 163.496 14.6644C162.869 14.9063 162.551 15.3506 162.553 16.078C162.573 21.0464 162.563 26.0149 162.563 30.9833C162.563 31.9029 162.837 32.2947 163.7 32.5988C164.771 32.9761 165.88 32.8712 166.977 32.8172C167.465 32.7931 167.955 32.6544 168.39 32.3825C168.829 32.109 169.056 31.7445 169.055 31.214C169.047 28.6725 169.051 26.1321 169.051 23.5917Z" fill="black"/>
<path d="M9.21997 26.3624C9.41213 27.433 9.72955 28.4634 10.161 29.4611C10.9387 31.2607 12.0762 32.8039 13.4808 34.1592C13.9823 34.6431 14.5615 34.8209 15.2284 34.5666C16.1009 34.2337 16.4082 33.5373 16.2936 32.7691C16.1898 32.0711 15.9211 31.4165 15.6144 30.7806C14.9378 29.3771 14.092 28.0689 13.3346 26.7109C12.6527 25.4878 12.0462 24.231 11.6785 22.8735C11.5308 22.3281 11.3664 21.7815 11.3927 21.205C11.4055 20.9251 11.5923 20.764 11.8198 20.65C12.0361 20.5408 12.2561 20.5327 12.4675 20.681C12.6693 20.8223 12.7833 21.0268 12.8818 21.2409C13.4626 22.4993 14.1991 23.6577 15.1246 24.6897C15.791 25.4327 16.5334 26.0964 17.3471 26.6761C17.7201 26.9421 18.1088 27.1846 18.5332 27.3805C18.5359 27.35 18.5439 27.3307 18.538 27.3174C18.2677 26.6868 18.0948 26.0263 18.0408 25.3459C17.9926 24.7438 18.0295 24.1405 18.1864 23.548C18.4861 22.4164 19.0899 21.4861 19.9849 20.734C20.8435 20.0125 21.838 19.6222 22.9439 19.5291C23.4385 19.4873 23.9379 19.5157 24.433 19.6185C25.6679 19.8738 26.6956 20.4669 27.5146 21.4272C28.2565 22.2975 28.659 23.3135 28.7656 24.4386C28.8298 25.119 28.7666 25.8004 28.5568 26.4609C28.2137 27.5379 27.597 28.427 26.708 29.1186C26.1609 29.5436 25.5603 29.8792 24.8778 30.0457C24.645 30.1024 24.4132 30.1623 24.1809 30.2207C24.182 30.2368 24.1825 30.2533 24.1836 30.2694C24.3554 30.2694 24.5283 30.2614 24.6996 30.271C24.9924 30.2881 25.2525 30.1666 25.525 30.0949C26.693 29.7893 27.8294 29.3969 28.917 28.8718C30.3848 28.1626 31.7219 27.2628 32.8968 26.1264C33.1639 25.8678 33.4069 25.5841 33.7003 25.3518C34.2537 24.914 34.8334 25.1152 35.108 25.5766C35.3312 25.9513 35.2429 26.3298 35.0417 26.6831C34.3629 27.874 33.484 28.9141 32.5569 29.9129C31.9355 30.5825 31.2739 31.2136 30.5924 31.8244C29.7933 32.5406 28.9518 33.2043 28.1173 33.8766C27.3182 34.5206 27.3289 35.6596 28.0825 36.3464C28.6526 36.8661 29.3083 36.9148 29.9715 36.5675C31.6063 35.7115 33.0686 34.6255 34.3121 33.252C34.9528 32.5449 35.5138 31.7832 35.9923 30.9594C37.1929 28.8932 37.7673 26.6424 37.9118 24.2775C37.9584 23.5115 37.9546 22.7381 37.8599 21.9684C37.7978 21.4614 37.7255 20.9583 37.619 20.4594C37.2871 18.9034 36.6759 17.4624 35.8467 16.1103C35.4308 15.4321 34.9608 14.793 34.4523 14.1822C34.266 13.9585 34.0899 13.7214 33.855 13.541C33.7463 13.4575 33.6414 13.4489 33.5209 13.5265C33.3973 13.6063 33.324 13.7267 33.2437 13.8391C32.831 14.4194 32.3637 14.9445 31.7904 15.3743C30.5587 16.2976 29.1659 16.7489 27.6388 16.811C27.2298 16.8276 26.823 16.7751 26.4216 16.7066C26.1448 16.659 25.867 16.6011 25.5678 16.4732C25.6492 16.4732 25.6888 16.4721 25.7284 16.4732C26.3397 16.4909 26.951 16.4727 27.5473 16.3314C28.886 16.0134 30.0111 15.3427 30.8719 14.2566C31.9114 12.9447 32.3273 11.4577 32.1308 9.79351C32.0559 9.16082 31.8894 8.55917 31.6266 7.98C31.0919 6.80079 30.2477 5.90795 29.114 5.29559C28.1141 4.75603 27.042 4.50445 25.9008 4.54139C25.5641 4.55209 25.2306 4.581 24.9068 4.65594C23.902 4.88878 23.0081 5.3518 22.247 6.04712C21.3707 6.84843 20.761 7.81995 20.4704 8.98043C20.3912 9.29785 20.2076 9.51517 19.8757 9.58529C19.0155 9.76782 18.1987 10.0745 17.4043 10.4449C16.0747 11.0653 14.8612 11.8645 13.7612 12.8344C13.0964 13.4211 12.5001 14.073 11.9552 14.7726C11.2048 15.7351 10.5887 16.7773 10.1117 17.8992C9.62785 19.0377 9.28956 20.2185 9.11559 21.447C9.03102 22.0454 8.97802 22.6449 8.95554 23.2466C8.9352 23.7856 8.96625 24.3236 9.01549 24.8615C9.0626 25.3657 9.13058 25.8646 9.21997 26.3624Z" fill="black"/>
<path d="M38.0223 40.3532C37.6685 40.031 37.2515 40.0567 36.8335 40.2141C36.6745 40.274 36.523 40.3532 36.3624 40.426C36.3565 40.3618 36.3469 40.312 36.371 40.2628C36.4829 40.0331 36.5182 39.7891 36.5353 39.5353C36.5771 38.9224 35.9845 38.4739 35.5456 38.4862C35.0724 38.4996 34.6704 38.6826 34.2716 38.8978C34.1298 38.9744 33.989 39.0541 33.8134 39.151C33.8509 39.0482 33.8745 38.9867 33.8959 38.9246C34.0201 38.5617 34.1062 38.1977 33.9874 37.8117C33.8065 37.2246 33.1834 36.9259 32.5224 37.0816C31.9175 37.224 31.4358 37.5719 30.9786 37.967C30.5772 38.3138 30.1864 38.6746 29.7673 38.9985C28.9783 39.6081 28.1283 40.1199 27.2092 40.516C26.2147 40.9442 25.1773 41.207 24.0998 41.275C23.6063 41.306 23.1069 41.3012 22.6085 41.2557C22.0465 41.2043 21.4935 41.1139 20.9492 40.9747C20.2817 40.8045 19.6222 40.6048 19.0034 40.2944C18.8049 40.1948 18.6191 40.069 18.4917 39.8758C19.0158 39.7259 19.5451 39.6922 20.0622 39.5857C21.5299 39.2843 22.8976 38.7528 24.126 37.8824C24.6196 37.5329 25.1093 37.1764 25.4776 36.6903C25.7865 36.283 25.9283 35.8141 25.8373 35.3029C25.7527 34.8271 25.4444 34.5236 25.0092 34.3405C24.6019 34.1692 24.1822 34.1478 23.7438 34.1992C23.1101 34.2736 22.4924 34.4085 21.895 34.622C21.3148 34.8292 20.749 35.0781 20.1709 35.2922C19.1672 35.6642 18.1368 35.9313 17.0754 36.0844C16.5374 36.162 15.9989 36.2359 15.4562 36.2418C14.846 36.2482 14.2352 36.2675 13.6239 36.2193C13.2326 36.1888 12.8398 36.1588 12.4527 36.1037C11.8206 36.0132 11.1927 35.8923 10.5702 35.7402C8.58699 35.2569 6.74618 34.4486 5.02955 33.3508C4.17097 32.8016 3.35092 32.2015 2.601 31.5083C2.18456 31.1235 1.78417 30.7242 1.39824 30.3088C1.18359 30.0776 0.988753 29.8265 0.727539 29.5974C0.731286 29.6622 0.727004 29.6975 0.736103 29.7291C1.35809 31.8482 2.18616 33.8775 3.35681 35.7584C4.08586 36.9296 4.90162 38.0376 5.81854 39.0675C6.38379 39.7023 6.98652 40.3008 7.61493 40.8751C8.23157 41.4382 8.87604 41.9676 9.55048 42.4579C11.3308 43.7512 13.2503 44.788 15.3175 45.5497C16.4695 45.9742 17.6455 46.3114 18.8477 46.5517C19.5521 46.6925 20.263 46.7974 20.9797 46.8697C21.6124 46.9334 22.2451 46.9864 22.8799 46.9944C23.4109 47.0008 23.9419 47.0083 24.4745 46.9741C24.8893 46.9478 25.3069 46.9328 25.7195 46.8895C26.334 46.8247 26.9464 46.738 27.5561 46.6293C28.4703 46.4666 29.3723 46.2557 30.2624 45.9924C32.0026 45.478 33.6588 44.7655 35.233 43.8652C36.1906 43.3176 37.1107 42.7111 37.9661 42.0121C38.4827 41.5924 38.5116 40.7991 38.0223 40.3532Z" fill="black"/>
<path d="M47.0496 23.5248C47.0496 10.5326 36.517 0 23.5248 0C10.5326 0 0 10.5326 0 23.5248C0 24.8726 0.114014 26.1942 0.331336 27.4805C1.01863 28.163 2.34718 29.3427 4.4567 30.6707C3.62328 28.4472 3.16722 26.0395 3.16722 23.5254C3.16722 12.2819 12.2819 3.16722 23.5254 3.16722C34.7688 3.16722 43.8835 12.2819 43.8835 23.5254C43.8835 29.3738 41.4169 34.6462 37.4677 38.3594C38.2176 38.4483 39.5007 38.8283 39.9578 40.3598C44.3331 36.0872 47.0496 30.1232 47.0496 23.5248Z" fill="black"/>
</svg>
