<svg width="20" height="20" viewBox="0 0 20 20" fill="none" xmlns="http://www.w3.org/2000/svg">
<path d="M10.3919 19.0004C9.04897 19.0004 7.71371 18.679 6.48556 18.0439C4.1058 16.812 2.47593 14.5891 2.00916 11.9453C1.95177 11.6163 2.16985 11.3025 2.49889 11.2451C2.82792 11.1878 3.14165 11.4058 3.19904 11.7349C3.59695 14.0037 4.99726 15.909 7.04033 16.9688C8.7735 17.8679 10.7554 18.0363 12.6148 17.4432C14.4742 16.8502 15.997 15.5685 16.8922 13.8353C17.7913 12.1022 17.9597 10.1203 17.3667 8.26088C16.7736 6.40145 15.4958 4.87871 13.7588 3.98343C11.2068 2.65964 8.09248 2.96189 5.83897 4.7601C5.57881 4.96671 5.19621 4.92462 4.9896 4.66445C4.783 4.40429 4.82509 4.02169 5.08525 3.81509C7.71371 1.72227 11.3369 1.36263 14.3212 2.90833C16.3413 3.95665 17.8334 5.72808 18.5259 7.89741C19.2146 10.0667 19.0195 12.3738 17.9712 14.3939C16.9267 16.4141 15.1552 17.91 12.9859 18.5987C12.1327 18.8665 11.2604 19.0004 10.3919 19.0004Z" fill="#8181A5" stroke="#8181A5" stroke-width="0.5"/>
<path d="M8.13854 5.65114C8.08498 5.65114 8.03141 5.64349 7.97402 5.62818L5.28436 4.87829C5.13132 4.8362 4.99741 4.7329 4.92089 4.59134C4.84054 4.45361 4.82141 4.28526 4.8635 4.13222L5.61339 1.44256C5.70139 1.12117 6.03807 0.933701 6.35946 1.0217C6.68084 1.1097 6.86831 1.44638 6.78032 1.76777L6.19111 3.87588L8.29923 4.46508C8.62061 4.55308 8.80809 4.88977 8.72009 5.21115C8.6474 5.47514 8.40636 5.65114 8.13854 5.65114Z" fill="#8181A5" stroke="#8181A5" stroke-width="0.5"/>
</svg>
