<svg width="18" height="18" viewBox="0 0 18 18" fill="none" xmlns="http://www.w3.org/2000/svg">
<path d="M13.1895 8.16211C13.5454 8.16211 13.834 7.87354 13.834 7.51758C13.834 7.16161 13.5454 6.87305 13.1895 6.87305C12.8335 6.87305 12.5449 7.16161 12.5449 7.51758C12.5449 7.87354 12.8335 8.16211 13.1895 8.16211Z" fill="#1C1D21"/>
<path d="M14.6719 2.03906H13.834V1.39453C13.834 1.03856 13.5454 0.75 13.1895 0.75C12.8335 0.75 12.5449 1.03856 12.5449 1.39453V2.03906H9.6123V1.39453C9.6123 1.03856 9.32375 0.75 8.96777 0.75C8.6118 0.75 8.32324 1.03856 8.32324 1.39453V2.03906H5.42285V1.39453C5.42285 1.03856 5.13429 0.75 4.77832 0.75C4.42235 0.75 4.13379 1.03856 4.13379 1.39453V2.03906H3.32812C1.90655 2.03906 0.75 3.19561 0.75 4.61719V14.6719C0.75 16.0935 1.90655 17.25 3.32812 17.25H8.25879C8.61476 17.25 8.90332 16.9614 8.90332 16.6055C8.90332 16.2495 8.61476 15.9609 8.25879 15.9609H3.32812C2.61734 15.9609 2.03906 15.3827 2.03906 14.6719V4.61719C2.03906 3.9064 2.61734 3.32812 3.32812 3.32812H4.13379V3.97266C4.13379 4.32863 4.42235 4.61719 4.77832 4.61719C5.13429 4.61719 5.42285 4.32863 5.42285 3.97266V3.32812H8.32324V3.97266C8.32324 4.32863 8.6118 4.61719 8.96777 4.61719C9.32375 4.61719 9.6123 4.32863 9.6123 3.97266V3.32812H12.5449V3.97266C12.5449 4.32863 12.8335 4.61719 13.1895 4.61719C13.5454 4.61719 13.834 4.32863 13.834 3.97266V3.32812H14.6719C15.3827 3.32812 15.9609 3.9064 15.9609 4.61719V8.29102C15.9609 8.64699 16.2495 8.93555 16.6055 8.93555C16.9614 8.93555 17.25 8.64699 17.25 8.29102V4.61719C17.25 3.19561 16.0935 2.03906 14.6719 2.03906Z" fill="#1C1D21"/>
<path d="M13.3506 9.45117C11.2004 9.45117 9.45117 11.2004 9.45117 13.3506C9.45117 15.5007 11.2004 17.25 13.3506 17.25C15.5007 17.25 17.25 15.5007 17.25 13.3506C17.25 11.2004 15.5007 9.45117 13.3506 9.45117ZM13.3506 15.9609C11.9113 15.9609 10.7402 14.79 10.7402 13.3506C10.7402 11.9112 11.9113 10.7402 13.3506 10.7402C14.7899 10.7402 15.9609 11.9112 15.9609 13.3506C15.9609 14.79 14.7899 15.9609 13.3506 15.9609Z" fill="#1C1D21"/>
<path d="M14.2852 12.7061H13.9951V12.0293C13.9951 11.6733 13.7066 11.3848 13.3506 11.3848C12.9946 11.3848 12.7061 11.6733 12.7061 12.0293V13.3506C12.7061 13.7066 12.9946 13.9951 13.3506 13.9951H14.2852C14.6411 13.9951 14.9297 13.7066 14.9297 13.3506C14.9297 12.9946 14.6411 12.7061 14.2852 12.7061Z" fill="#1C1D21"/>
<path d="M10.3857 8.16211C10.7417 8.16211 11.0303 7.87354 11.0303 7.51758C11.0303 7.16161 10.7417 6.87305 10.3857 6.87305C10.0298 6.87305 9.74121 7.16161 9.74121 7.51758C9.74121 7.87354 10.0298 8.16211 10.3857 8.16211Z" fill="#1C1D21"/>
<path d="M7.58203 10.9658C7.938 10.9658 8.22656 10.6773 8.22656 10.3213C8.22656 9.96532 7.938 9.67676 7.58203 9.67676C7.22607 9.67676 6.9375 9.96532 6.9375 10.3213C6.9375 10.6773 7.22607 10.9658 7.58203 10.9658Z" fill="#1C1D21"/>
<path d="M4.77832 8.16211C5.13429 8.16211 5.42285 7.87354 5.42285 7.51758C5.42285 7.16161 5.13429 6.87305 4.77832 6.87305C4.42236 6.87305 4.13379 7.16161 4.13379 7.51758C4.13379 7.87354 4.42236 8.16211 4.77832 8.16211Z" fill="#1C1D21"/>
<path d="M4.77832 10.9658C5.13429 10.9658 5.42285 10.6773 5.42285 10.3213C5.42285 9.96532 5.13429 9.67676 4.77832 9.67676C4.42236 9.67676 4.13379 9.96532 4.13379 10.3213C4.13379 10.6773 4.42236 10.9658 4.77832 10.9658Z" fill="#1C1D21"/>
<path d="M4.77832 13.7695C5.13429 13.7695 5.42285 13.481 5.42285 13.125C5.42285 12.769 5.13429 12.4805 4.77832 12.4805C4.42236 12.4805 4.13379 12.769 4.13379 13.125C4.13379 13.481 4.42236 13.7695 4.77832 13.7695Z" fill="#1C1D21"/>
<path d="M7.58203 13.7695C7.938 13.7695 8.22656 13.481 8.22656 13.125C8.22656 12.769 7.938 12.4805 7.58203 12.4805C7.22607 12.4805 6.9375 12.769 6.9375 13.125C6.9375 13.481 7.22607 13.7695 7.58203 13.7695Z" fill="#1C1D21"/>
<path d="M7.58203 8.16211C7.938 8.16211 8.22656 7.87354 8.22656 7.51758C8.22656 7.16161 7.938 6.87305 7.58203 6.87305C7.22607 6.87305 6.9375 7.16161 6.9375 7.51758C6.9375 7.87354 7.22607 8.16211 7.58203 8.16211Z" fill="#1C1D21"/>
</svg>
