<svg width="20" height="11" viewBox="0 0 20 11" fill="none" xmlns="http://www.w3.org/2000/svg">
<path d="M13.7446 0.297501C13.3566 -0.0948138 12.7244 -0.0997627 12.3304 0.286474L4.9387 7.59194L1.72547 4.26545C1.34223 3.86602 0.707761 3.8529 0.308371 4.23615C-0.0910638 4.61939 -0.104174 5.25386 0.279067 5.65325C0.280804 5.65503 0.282497 5.65681 0.284233 5.65859L4.20208 9.71874C4.38958 9.91002 4.64584 10.0183 4.91369 10.0194H4.92472C5.18749 10.0186 5.43946 9.91457 5.6263 9.72977L13.7355 1.71169C14.1273 1.32315 14.1313 0.691031 13.7446 0.297501Z" fill="#8181A5"/>
<path d="M10.2155 9.71881C10.4025 9.9096 10.658 10.0178 10.9251 10.0195H10.9361C11.1989 10.0187 11.4509 9.91464 11.6377 9.72983L19.747 1.71176C20.1146 1.29787 20.077 0.664399 19.6632 0.296829C19.288 -0.0364016 18.7242 -0.0407861 18.3438 0.286541L10.9552 7.59201L10.6916 7.31838C10.3084 6.91895 9.67389 6.90579 9.27446 7.28904C8.87502 7.67223 8.86187 8.3067 9.24511 8.70614C9.24685 8.70796 9.24858 8.70974 9.25032 8.71152L10.2155 9.71881Z" fill="#8181A5"/>
</svg>
