<svg width="20" height="20" viewBox="0 0 20 20" fill="none" xmlns="http://www.w3.org/2000/svg">
<g clip-path="url(#clip0_1282_17641)">
<path d="M9.99853 1.00007C8.61812 0.994613 7.25551 1.3116 6.01925 1.92578C5.93728 1.95886 5.86301 2.00848 5.80108 2.07156C5.73916 2.13463 5.69091 2.2098 5.65934 2.29236C5.62778 2.37493 5.61358 2.46311 5.61763 2.55141C5.62168 2.63971 5.6439 2.72623 5.6829 2.80555C5.7219 2.88488 5.77684 2.9553 5.84428 3.01244C5.91172 3.06957 5.99023 3.11219 6.07488 3.13761C6.15954 3.16304 6.24853 3.17074 6.33629 3.16022C6.42406 3.1497 6.50871 3.1212 6.58496 3.07649C7.76151 2.49594 9.06669 2.22505 10.3771 2.28943C11.6875 2.35382 12.9598 2.75135 14.0738 3.44444C15.1878 4.13754 16.1066 5.10329 16.7433 6.2504C17.3801 7.39751 17.7138 8.68806 17.7128 10.0001C17.7128 13.1372 16.0285 16.6343 13.2128 17.0715C12.9138 17.1429 12.6027 17.1477 12.3016 17.0855C12.0006 17.0233 11.7169 16.8956 11.4707 16.7115C10.9112 16.0933 10.6139 15.2819 10.6414 14.4486C11.7115 14.2942 12.6902 13.7596 13.3985 12.9427C14.1068 12.1258 14.4973 11.0812 14.4985 10.0001V6.14292C14.4985 5.97242 14.4308 5.80891 14.3102 5.68835C14.1897 5.56779 14.0262 5.50006 13.8557 5.50006H11.9271C11.7566 5.50006 11.5931 5.56779 11.4725 5.68835C11.352 5.80891 11.2842 5.97242 11.2842 6.14292C11.2842 6.31341 11.352 6.47692 11.4725 6.59748C11.5931 6.71804 11.7566 6.78577 11.9271 6.78577H13.2128V10.0001C13.2128 10.8525 12.8742 11.6701 12.2714 12.2729C11.6686 12.8757 10.851 13.2143 9.99853 13.2143C9.14605 13.2143 8.32848 12.8757 7.72569 12.2729C7.12289 11.6701 6.78425 10.8525 6.78425 10.0001V6.78577H8.06996C8.24045 6.78577 8.40397 6.71804 8.52453 6.59748C8.64509 6.47692 8.71281 6.31341 8.71281 6.14292C8.71281 5.97242 8.64509 5.80891 8.52453 5.68835C8.40397 5.56779 8.24045 5.50006 8.06996 5.50006H6.14139C5.9709 5.50006 5.80738 5.56779 5.68682 5.68835C5.56626 5.80891 5.49854 5.97242 5.49854 6.14292V10.0001C5.4998 11.0812 5.8903 12.1258 6.59858 12.9427C7.30686 13.7596 8.28557 14.2942 9.35567 14.4486C9.43924 15.9272 9.8571 17.02 10.6028 17.6629C11.1845 18.149 11.9286 18.397 12.6857 18.3572C12.9221 18.3574 13.1583 18.3424 13.3928 18.3122C17.0314 17.785 18.9985 13.6322 18.9985 10.0001C18.9985 7.61311 18.0503 5.32393 16.3625 3.6361C14.6747 1.94828 12.3855 1.00007 9.99853 1.00007Z" fill="#8181A5" stroke="#8181A5" stroke-width="0.35"/>
<path d="M4.21312 13.8567C3.93736 13.8609 3.66398 13.9086 3.40312 13.9982C2.5219 12.5453 2.14502 10.8421 2.33101 9.15313C2.517 7.46411 3.25545 5.88376 4.43169 4.65747C4.49745 4.59833 4.5503 4.52626 4.58693 4.44577C4.62357 4.36527 4.6432 4.27809 4.6446 4.18966C4.646 4.10123 4.62914 4.01347 4.59508 3.93185C4.56101 3.85024 4.51047 3.77653 4.44662 3.71534C4.38277 3.65415 4.30698 3.60679 4.22399 3.57623C4.141 3.54567 4.0526 3.53256 3.96431 3.53772C3.87602 3.54288 3.78975 3.5662 3.71089 3.60622C3.63202 3.64625 3.56227 3.70211 3.50598 3.77033C2.1291 5.20529 1.26627 7.05589 1.05227 9.03304C0.838273 11.0102 1.28516 13.0025 2.32313 14.6989C1.92623 15.1357 1.69167 15.6957 1.65882 16.285C1.62598 16.8743 1.79684 17.4569 2.14274 17.9352C2.48864 18.4134 2.98851 18.758 3.55846 18.9113C4.12841 19.0646 4.73373 19.0171 5.27284 18.7769C5.81194 18.5367 6.252 18.1184 6.51916 17.5921C6.78632 17.0658 6.86431 16.4637 6.74004 15.8867C6.61577 15.3097 6.29681 14.7931 5.83669 14.4235C5.37658 14.0538 4.80331 13.8537 4.21312 13.8567ZM4.21312 17.7139C3.95883 17.7139 3.71025 17.6385 3.49882 17.4972C3.28739 17.3559 3.12259 17.1551 3.02528 16.9202C2.92797 16.6852 2.90251 16.4267 2.95212 16.1773C3.00172 15.9279 3.12418 15.6988 3.30399 15.519C3.4838 15.3392 3.71289 15.2168 3.96229 15.1672C4.2117 15.1175 4.47021 15.143 4.70514 15.2403C4.94008 15.3376 5.14088 15.5024 5.28215 15.7139C5.42343 15.9253 5.49883 16.1739 5.49883 16.4282C5.49883 16.7691 5.36338 17.0962 5.12226 17.3373C4.88114 17.5784 4.55411 17.7139 4.21312 17.7139Z" fill="#8181A5" stroke="#8181A5" stroke-width="0.35"/>
</g>
<defs>
<clipPath id="clip0_1282_17641">
<rect width="20" height="20" fill="white"/>
</clipPath>
</defs>
</svg>
