<svg width="20" height="20" viewBox="0 0 20 20" fill="none" xmlns="http://www.w3.org/2000/svg">
<path opacity="0.2" d="M0 10C0 15.5228 4.47715 20 10 20C15.5228 20 20 15.5228 20 10C20 4.47715 15.5228 0 10 0C4.47715 0 0 4.47715 0 10Z" fill="#0544B8"/>
<path d="M10 3.75C6.54822 3.75 3.75 6.54822 3.75 10C3.75 13.4518 6.54822 16.25 10 16.25C13.4518 16.25 16.25 13.4518 16.25 10C16.25 6.54822 13.4518 3.75 10 3.75Z" fill="#0544B8"/>
<path d="M10 13.75C9.25832 13.75 8.5333 13.5301 7.91661 13.118C7.29993 12.706 6.81928 12.1203 6.53545 11.4351C6.25162 10.7498 6.17736 9.99584 6.32206 9.26841C6.46675 8.54098 6.8239 7.8728 7.34835 7.34835C7.8728 6.8239 8.54098 6.46675 9.26841 6.32206C9.99584 6.17736 10.7498 6.25162 11.4351 6.53545C12.1203 6.81928 12.706 7.29993 13.118 7.91661C13.5301 8.5333 13.75 9.25832 13.75 10C13.75 10.9946 13.3549 11.9484 12.6517 12.6517C11.9484 13.3549 10.9946 13.75 10 13.75V13.75Z" fill="white"/>
</svg>
