<svg width="38" height="31" viewBox="0 0 38 31" fill="none" xmlns="http://www.w3.org/2000/svg">
<path d="M33.2943 17.7931V15.8659C33.2904 12.4627 32.1759 9.15383 30.1201 6.44177L29.797 6.01369C30.2052 5.47546 30.4198 4.81521 30.406 4.13984C30.3982 3.4276 30.13 2.74283 29.6521 2.21465C29.1742 1.68647 28.5196 1.35137 27.8117 1.27254V0.464844H26.4968C25.8541 0.473557 25.2262 0.659046 24.682 1.00098C24.1378 1.34291 23.6982 1.82808 23.4114 2.40331H21.4536C20.9941 2.36879 20.5397 2.51811 20.1903 2.81846C19.9205 3.05128 19.7244 3.3577 19.626 3.70022C19.5276 4.04273 19.5311 4.40651 19.6362 4.74705C19.7412 5.08759 19.9432 5.39014 20.2175 5.61767C20.4918 5.84521 20.8265 5.98788 21.1806 6.02823C21.2258 6.02823 21.271 6.02823 21.3179 6.02823C21.3647 6.02823 21.4035 6.02823 21.4455 6.02823H23.413C23.7007 6.59777 24.1389 7.07769 24.6799 7.41598C25.2209 7.75426 25.8442 7.93801 26.4823 7.94731H26.6309C27.2399 9.17661 29.02 13.2538 27.3013 15.8288C27.0026 16.236 26.6224 16.5765 26.185 16.8288C25.7475 17.081 25.2623 17.2394 24.7603 17.2939C24.1669 17.4519 23.5466 17.4813 22.941 17.3802C22.3353 17.279 21.7583 17.0497 21.2484 16.7075C20.4746 15.9256 20.0123 14.8884 19.948 13.7902C20.3968 13.6112 20.7701 13.2829 21.0051 12.8607C21.24 12.4385 21.3222 11.9483 21.2378 11.4725C21.1533 10.9968 20.9074 10.5648 20.5415 10.2492C20.1756 9.93369 19.7121 9.75397 19.2292 9.74038H9.89387V11.2362H10.8631C10.7949 11.4309 10.7552 11.6344 10.7452 11.8404C10.7544 12.2736 10.8984 12.6931 11.1571 13.0406C9.83985 13.808 8.67868 14.8163 7.7341 16.0129L3.81517 11.7968V10.2799H2.36133V12.3945L6.8731 17.2535C5.79373 19.0104 5.15527 21.0023 5.01217 23.0592L4.96048 23.8459H6.07187C6.0541 24.0333 6.00402 24.2158 6.00402 24.4048C5.9824 25.9395 6.56954 27.4203 7.63699 28.5232C8.70444 29.6261 10.1653 30.2612 11.6999 30.2897C13.2369 30.2549 14.6976 29.6129 15.7626 28.504C16.8276 27.3952 17.4101 25.9097 17.3828 24.3725C17.3828 24.1965 17.3327 24.0252 17.3166 23.8492H24.4146C24.4 24.0382 24.3596 24.2191 24.3596 24.4113V25.1592H25.5276C25.6767 26.5497 26.3278 27.838 27.3588 28.7828C28.3898 29.7275 29.7299 30.2639 31.1281 30.2913C32.5272 30.2638 33.8684 29.7277 34.9009 28.7832C35.9335 27.8386 36.5866 26.5504 36.7383 25.1592H37.9159V24.4113C37.9258 22.9654 37.4864 21.5521 36.6586 20.3666C35.8307 19.1811 34.6552 18.2818 33.2943 17.7931ZM21.4213 4.52592C21.3831 4.53029 21.3444 4.52634 21.3078 4.51435C21.2713 4.50236 21.2378 4.48261 21.2096 4.45646C21.1774 4.42872 21.151 4.39489 21.1318 4.35692C21.1127 4.31894 21.1013 4.27756 21.0982 4.23515C21.09 4.15373 21.1139 4.07231 21.1649 4.00832C21.2159 3.94432 21.29 3.90282 21.3712 3.89269C21.3932 3.89021 21.4154 3.89021 21.4374 3.89269H22.9963C22.9963 3.96054 22.9769 4.02515 22.9769 4.09461V4.30623C22.9769 4.38215 22.993 4.45161 22.9979 4.52592H21.4213ZM26.353 6.44177C25.8232 6.39336 25.3313 6.14659 24.9757 5.75089C24.6202 5.35519 24.4272 4.83976 24.4356 4.30784V4.09461C24.4297 3.56418 24.6237 3.05097 24.979 2.65707C25.3342 2.26317 25.8248 2.01744 26.353 1.96877V6.44177ZM27.8069 2.76838C28.1032 2.81427 28.3766 2.95547 28.5855 3.17061C28.8548 3.45027 29.0038 3.8243 29.0006 4.21254C29.0024 4.55271 28.8834 4.88248 28.6648 5.14311C28.4462 5.40374 28.1422 5.5783 27.8069 5.63569V2.76838ZM12.9825 11.2298H19.2276C19.3882 11.2298 19.5423 11.2936 19.6559 11.4072C19.7695 11.5208 19.8333 11.6749 19.8333 11.8355C19.8333 11.9962 19.7695 12.1503 19.6559 12.2639C19.5423 12.3775 19.3882 12.4413 19.2276 12.4413H12.7822C12.6215 12.4413 12.4674 12.3775 12.3538 12.2639C12.2402 12.1503 12.1764 11.9962 12.1764 11.8355C12.1764 11.6749 12.2402 11.5208 12.3538 11.4072C12.4674 11.2936 12.6215 11.2298 12.7822 11.2298H12.9825ZM12.766 28.6436C12.2401 28.7876 11.6906 28.8246 11.1501 28.7525C10.6096 28.6803 10.089 28.5005 9.61925 28.2236C9.11944 27.9298 8.68354 27.5389 8.33729 27.0739C7.99104 26.6089 7.74145 26.0793 7.60325 25.5162C7.51277 25.1526 7.46613 24.7795 7.46433 24.4048C7.47703 24.2174 7.50022 24.0308 7.53379 23.8459H8.41741C8.30121 24.5416 8.39846 25.2561 8.69633 25.8954C8.99421 26.5347 9.47873 27.0687 10.0861 27.4272C10.5784 27.7078 11.1348 27.8564 11.7015 27.8585C12.601 27.8378 13.4557 27.4618 14.0789 26.8129C14.7021 26.164 15.0432 25.2947 15.0276 24.3952C15.0195 24.2106 14.9968 24.0269 14.9597 23.8459H15.8659C16.0092 24.8843 15.7751 25.9396 15.2063 26.82C14.6374 27.7004 13.7715 28.3475 12.766 28.6436ZM11.1943 26.2787C10.9508 26.208 10.7242 26.0887 10.5281 25.928C10.3321 25.7672 10.1707 25.5683 10.0538 25.3434C9.81118 24.8826 9.75786 24.3454 9.90517 23.8459H13.459C13.59 24.2645 13.5767 24.7149 13.4211 25.125C13.2656 25.5351 12.9769 25.881 12.6013 26.1075C12.3904 26.2295 12.1571 26.3076 11.9153 26.337C11.6735 26.3664 11.4282 26.3466 11.1943 26.2787ZM24.6924 22.3501H6.55002C6.78278 20.5534 7.45775 18.8425 8.51442 17.3708C9.57109 15.8991 10.9764 14.7127 12.6045 13.9178L12.6319 13.9032C12.6799 13.9159 12.7284 13.9262 12.7773 13.9339H18.5055C18.599 15.4238 19.2488 16.8242 20.326 17.8577C21.1786 18.5244 22.2289 18.8882 23.3113 18.8915H23.5326C24.0235 18.8893 24.5134 18.8477 24.9977 18.7672C25.6938 18.6805 26.3643 18.4501 26.9667 18.0905C27.569 17.7309 28.09 17.2501 28.4966 16.6785C30.7469 13.2975 28.5241 8.42061 27.8682 7.13961C28.1357 7.10674 28.397 7.0349 28.6436 6.92638L28.9667 7.35446C30.8224 9.80401 31.827 12.7928 31.8276 15.8659V17.4684C31.5965 17.4311 31.3635 17.4068 31.1297 17.3957C29.6664 17.4185 28.2494 17.9129 27.0896 18.8056C25.9298 19.6982 25.0891 20.9413 24.6924 22.3501ZM31.1329 28.7874C30.1231 28.7715 29.1516 28.3978 28.3914 27.7328C27.6312 27.0679 27.1316 26.1548 26.9814 25.156H27.8392C27.9786 25.928 28.3848 26.6265 28.9868 27.1295C29.5889 27.6325 30.3484 27.9081 31.1329 27.9081C31.9174 27.9081 32.677 27.6325 33.279 27.1295C33.8811 26.6265 34.2873 25.928 34.4267 25.156H35.278C35.1277 26.1535 34.6289 27.0656 33.8701 27.7304C33.1113 28.3951 32.1416 28.7696 31.1329 28.7874ZM29.3673 25.156H32.9115C32.7808 25.5214 32.5405 25.8375 32.2232 26.0609C31.906 26.2844 31.5274 26.4044 31.1394 26.4044C30.7514 26.4044 30.3728 26.2844 30.0556 26.0609C29.7383 25.8375 29.498 25.5214 29.3673 25.156ZM25.8668 23.6602C26.0424 22.2641 26.7445 20.9877 27.8295 20.0918C28.3564 19.6518 28.966 19.3216 29.6223 19.1205C30.2786 18.9194 30.9685 18.8514 31.6515 18.9206C32.8619 19.0611 33.9896 19.6051 34.853 20.465C35.7164 21.3248 36.265 22.4504 36.4104 23.6602H25.8668Z" fill="#808080"/>
<path d="M0.615234 1.54688V11.2311H11.0328V1.54688H0.615234ZM6.28847 4.68072V3.04918H9.57416V9.73526H2.07393V3.04918H4.83139V4.68072H6.28847Z" fill="#808080"/>
</svg>
