<svg width="35" height="35" viewBox="0 0 35 35" fill="none" xmlns="http://www.w3.org/2000/svg">
<path d="M2.10304 21.8748V2.71632H8.58235V10.8902C8.58172 11.0597 8.6272 11.2263 8.71391 11.372C8.80063 11.5177 8.92532 11.637 9.07465 11.7174C9.22398 11.7977 9.39234 11.8359 9.5617 11.8279C9.73107 11.8199 9.89508 11.766 10.0362 11.672L12.6386 9.96293L15.2555 11.6688C15.3966 11.7628 15.5606 11.8167 15.73 11.8246C15.8994 11.8326 16.0677 11.7944 16.217 11.7141C16.3664 11.6338 16.4911 11.5144 16.5778 11.3687C16.6645 11.223 16.71 11.0565 16.7093 10.8869V2.71632H23.1709V17.0787C23.4826 17.0303 23.7973 17.0033 24.1127 16.9979C24.4219 16.9888 24.7314 16.9958 25.0399 17.0189V1.78101C25.0399 1.53379 24.942 1.29662 24.7677 1.12136C24.5933 0.946091 24.3566 0.846984 24.1094 0.845703H1.16773C0.919671 0.845703 0.681771 0.944244 0.506367 1.11965C0.330963 1.29505 0.232422 1.53295 0.232422 1.78101L0.232422 22.8149C0.232422 23.063 0.330963 23.3009 0.506367 23.4763C0.681771 23.6517 0.919671 23.7502 1.16773 23.7502H16.9791C17.0324 23.4272 17.0421 23.1041 17.1083 22.781C17.1746 22.4579 17.3087 22.1349 17.3717 21.8732L2.10304 21.8748ZM10.4513 2.71632H14.8258V9.16009L13.1555 8.06324C13.0033 7.96365 12.8253 7.91061 12.6434 7.91061C12.4615 7.91061 12.2836 7.96365 12.1313 8.06324L10.4562 9.16009L10.4513 2.71632Z" fill="#808080"/>
<path d="M27.3086 18.1493C27.3086 18.1493 26.4427 18.0977 26.1519 18.0977C25.8951 18.0977 25.1197 18.1477 25.1197 18.1477C23.6026 18.35 22.1699 18.9642 20.9775 19.9237C19.785 20.8832 18.8784 22.1513 18.3561 23.59C18.3561 23.59 18.1122 24.3395 18.0685 24.5979C17.9684 25.1956 17.8844 25.7772 17.8844 25.7772C17.7581 27.404 18.1114 29.0322 18.9004 30.4605C19.6895 31.8887 20.8799 33.0544 22.3243 33.8134C23.7688 34.5725 25.404 34.8916 27.0279 34.7313C28.6517 34.571 30.193 33.9383 31.4611 32.9114C32.7293 31.8846 33.6687 30.5087 34.1633 28.9537C34.6579 27.3987 34.6859 25.7328 34.2439 24.1621C33.802 22.5914 32.9093 21.1846 31.6765 20.1157C30.4436 19.0467 28.9245 18.3626 27.307 18.1477L27.3086 18.1493ZM26.2101 32.5828C24.5767 32.5828 23.0103 31.9339 21.8553 30.779C20.7003 29.624 20.0514 28.0575 20.0514 26.4241C20.0514 24.7907 20.7003 23.2243 21.8553 22.0693C23.0103 20.9143 24.5767 20.2655 26.2101 20.2655C27.8435 20.2655 29.4099 20.9143 30.5649 22.0693C31.7199 23.2243 32.3688 24.7907 32.3688 26.4241C32.3688 28.0575 31.7199 29.624 30.5649 30.779C29.4099 31.9339 27.8435 32.5828 26.2101 32.5828Z" fill="#808080"/>
<path d="M29.7321 25.3275H27.309V22.2582C27.3117 21.9745 27.204 21.7009 27.0087 21.4951C26.8134 21.2893 26.5458 21.1675 26.2623 21.1553C25.9789 21.1431 25.7018 21.2416 25.4896 21.4299C25.2773 21.6183 25.1466 21.8817 25.125 22.1646C25.125 22.2373 25.125 21.9852 25.125 26.4227C25.125 26.7127 25.2402 26.9909 25.4453 27.196C25.6504 27.4011 25.9286 27.5163 26.2186 27.5163H29.7418C29.8855 27.5157 30.0277 27.4867 30.1603 27.4311C30.2928 27.3755 30.4131 27.2944 30.5143 27.1923C30.6154 27.0903 30.6955 26.9693 30.7499 26.8363C30.8043 26.7032 30.832 26.5608 30.8313 26.417C30.8307 26.2733 30.8018 26.1311 30.7462 25.9986C30.6906 25.8661 30.6094 25.7458 30.5074 25.6446C30.4053 25.5434 30.2843 25.4634 30.1513 25.4089C30.0183 25.3545 29.8758 25.3268 29.7321 25.3275V25.3275Z" fill="#808080"/>
</svg>
