<svg width="32" height="28" viewBox="0 0 32 28" fill="none" xmlns="http://www.w3.org/2000/svg">
<path d="M31.97 8.758L29.97 0.758C29.86 0.312 29.458 0 29 0H3C2.542 0 2.14 0.312 2.03 0.758L0.03 8.758C0.01 8.836 0 8.918 0 9C0 10.676 0.794 12.154 2 13.062V27C2 27.552 2.448 28 3 28H13C13.552 28 14 27.552 14 27V20H18V27C18 27.552 18.448 28 19 28H29C29.552 28 30 27.552 30 27V13.062C31.206 12.154 32 10.676 32 9C32 8.918 31.99 8.836 31.97 8.758ZM28 26H20V19C20 18.448 19.552 18 19 18H13C12.448 18 12 18.448 12 19V26H4V13.92C4.246 13.962 4.494 14 4.75 14C6.274 14 7.63 13.242 8.5 12.066C9.37 13.242 10.726 14 12.25 14C13.774 14 15.13 13.242 16 12.066C16.87 13.242 18.226 14 19.75 14C21.274 14 22.63 13.242 23.5 12.066C24.37 13.242 25.726 14 27.25 14C27.506 14 27.754 13.962 28 13.92V26ZM27.25 12C25.734 12 24.5 10.654 24.5 9C24.5 8.448 24.052 8 23.5 8C22.948 8 22.5 8.448 22.5 9C22.5 10.654 21.266 12 19.75 12C18.234 12 17 10.654 17 9C17 8.448 16.552 8 16 8C15.448 8 15 8.448 15 9C15 10.654 13.766 12 12.25 12C10.734 12 9.5 10.654 9.5 9C9.5 8.448 9.052 8 8.5 8C7.948 8 7.5 8.448 7.5 9C7.5 10.654 6.266 12 4.75 12C3.27 12 2.058 10.716 2.002 9.116L3.782 2H28.22L30 9.116C29.942 10.716 28.73 12 27.25 12Z" fill="#0544B8"/>
</svg>
