<svg width="32" height="32" viewBox="0 0 32 32" fill="none" xmlns="http://www.w3.org/2000/svg">
<path d="M29.7336 10.7061L29.7336 10.7061C30.4024 10.5104 31.0988 10.8934 31.2946 11.5605C31.7134 12.9907 31.925 14.4842 31.925 16C31.925 24.7812 24.7805 31.925 16 31.925C7.21948 31.925 0.075 24.7812 0.075 16C0.075 7.21883 7.21948 0.075 16 0.075C19.1906 0.075 22.2619 1.00942 24.8829 2.7767L24.8829 2.77672C25.4591 3.16497 25.6107 3.94711 25.2223 4.52351C24.8343 5.09921 24.0515 5.25187 23.4759 4.86329L23.4758 4.86327C21.2719 3.37728 18.6866 2.59167 16 2.59167C8.60669 2.59167 2.59167 8.60669 2.59167 16C2.59167 23.3933 8.60669 29.4083 16 29.4083C23.3933 29.4083 29.4083 23.3933 29.4083 16C29.4083 14.7245 29.2299 13.468 28.8793 12.2671L28.8793 12.267C28.6842 11.6 29.0661 10.9012 29.7336 10.7061Z" fill="#0544B8" stroke="white" stroke-width="0.15"/>
<path d="M15.9474 16.8327L16.0004 16.8858L16.0534 16.8327L29.7774 3.10945C30.2689 2.61821 31.0652 2.61821 31.5568 3.10945C32.048 3.60099 32.048 4.39724 31.5567 4.88878C31.5567 4.88879 31.5567 4.88879 31.5567 4.8888L16.8901 19.5554C16.644 19.8016 16.3228 19.9241 16.0004 19.9241C15.678 19.9241 15.3569 19.8016 15.1107 19.5554L9.77741 14.2221C9.28619 13.7306 9.28617 12.9343 9.77738 12.4428C10.2689 11.9515 11.0652 11.9515 11.5568 12.4428L15.9474 16.8327Z" fill="#0544B8" stroke="white" stroke-width="0.15"/>
</svg>
