<svg width="36" height="36" viewBox="0 0 36 36" fill="none" xmlns="http://www.w3.org/2000/svg">
<path d="M13.7812 29.6719H11.6719C11.0894 29.6719 10.6172 30.1441 10.6172 30.7266C10.6172 31.309 11.0894 31.7812 11.6719 31.7812H13.7812C14.3637 31.7812 14.8359 31.309 14.8359 30.7266C14.8359 30.1441 14.3637 29.6719 13.7812 29.6719Z" fill="#808080"/>
<path d="M20.1445 14.8359H22.2539C22.8364 14.8359 23.3086 14.3637 23.3086 13.7812C23.3086 13.1988 22.8364 12.7266 22.2539 12.7266H20.1445C19.5621 12.7266 19.0898 13.1988 19.0898 13.7812C19.0898 14.3637 19.5621 14.8359 20.1445 14.8359Z" fill="#808080"/>
<path d="M34.9453 16.9453H27.5273V1.05469C27.5273 0.472219 27.0551 0 26.4727 0H9.52734C8.94487 0 8.47266 0.472219 8.47266 1.05469V16.9453H1.05469C0.472219 16.9453 0 17.4175 0 18V34.9453C0 35.5278 0.472219 36 1.05469 36H34.9453C35.5278 36 36 35.5278 36 34.9453V18C36 17.4175 35.5278 16.9453 34.9453 16.9453ZM25.2422 19.0547H27.7031V23.2734H25.2422V19.0547ZM16.7695 2.10938H19.2305V6.32812H16.7695V2.10938ZM10.582 2.10938H14.6602V7.38281C14.6602 7.96528 15.1324 8.4375 15.7148 8.4375H20.2852C20.8676 8.4375 21.3398 7.96528 21.3398 7.38281V2.10938H25.418V16.9453H10.582V2.10938ZM8.29688 19.0547H10.7578V23.2734H8.29688V19.0547ZM2.10938 19.0547H6.1875V24.3281C6.1875 24.9106 6.65972 25.3828 7.24219 25.3828H11.8125C12.395 25.3828 12.8672 24.9106 12.8672 24.3281V19.0547H16.9453V33.8906H2.10938V19.0547ZM33.8906 33.8906H19.0547V19.0547H23.1328V24.3281C23.1328 24.9106 23.605 25.3828 24.1875 25.3828H28.7578C29.3403 25.3828 29.8125 24.9106 29.8125 24.3281V19.0547H33.8906V33.8906Z" fill="#808080"/>
<path d="M28.6172 29.6719C28.0347 29.6719 27.5625 30.1441 27.5625 30.7266C27.5625 31.309 28.0347 31.7812 28.6172 31.7812H30.7266C31.309 31.7812 31.7812 31.309 31.7812 30.7266C31.7812 30.1441 31.309 29.6719 30.7266 29.6719H28.6172Z" fill="#808080"/>
</svg>
