<svg width="37" height="35" viewBox="0 0 37 35" fill="none" xmlns="http://www.w3.org/2000/svg">
<path d="M29.6341 12.2492C29.5506 12.1293 29.4406 12.0303 29.3125 11.96C29.1845 11.8897 29.0419 11.8499 28.8959 11.8437L10.5532 11.0538C10.3019 11.0431 10.0567 11.1326 9.87146 11.3027C9.68621 11.4728 9.57612 11.7096 9.56541 11.9608C9.5547 12.2121 9.64424 12.4574 9.81434 12.6426C9.98445 12.8279 10.2212 12.9379 10.4724 12.9487L27.5713 13.6853L24.2097 24.1756H9.24637L6.54383 9.45781C6.51458 9.29925 6.44538 9.15078 6.34278 9.02641C6.24017 8.90204 6.10755 8.80589 5.95744 8.74704L1.52645 7.00727C1.29231 6.91516 1.03117 6.91983 0.800482 7.02025C0.56979 7.12068 0.388441 7.30863 0.29633 7.54277C0.204218 7.7769 0.208889 8.03804 0.309314 8.26873C0.40974 8.49942 0.597694 8.68077 0.83183 8.77288L4.76852 10.3188L7.51468 25.295C7.55476 25.5134 7.67016 25.7107 7.84077 25.8527C8.01139 25.9946 8.2264 26.0723 8.44837 26.072H8.90391L7.86198 28.9668C7.81893 29.0861 7.80524 29.214 7.82205 29.3397C7.83886 29.4654 7.88568 29.5852 7.95856 29.6889C8.03145 29.7927 8.12824 29.8774 8.24077 29.9359C8.3533 29.9944 8.47825 30.0249 8.60506 30.0249H9.34491C8.97675 30.4338 8.73502 30.9407 8.64897 31.4842C8.56292 32.0276 8.63624 32.5844 8.86006 33.0871C9.08388 33.5897 9.4486 34.0168 9.91008 34.3164C10.3716 34.6161 10.91 34.7756 11.4603 34.7756C12.0105 34.7756 12.5489 34.6161 13.0104 34.3164C13.4719 34.0168 13.8366 33.5897 14.0604 33.0871C14.2843 32.5844 14.3576 32.0276 14.2715 31.4842C14.1855 30.9407 13.9438 30.4338 13.5756 30.0249H19.7803C19.4121 30.4338 19.1704 30.9407 19.0843 31.4842C18.9983 32.0276 19.0716 32.5844 19.2954 33.0871C19.5193 33.5897 19.884 34.0168 20.3455 34.3164C20.8069 34.6161 21.3454 34.7756 21.8956 34.7756C22.4459 34.7756 22.9843 34.6161 23.4458 34.3164C23.9073 34.0168 24.272 33.5897 24.4958 33.0871C24.7197 32.5844 24.793 32.0276 24.7069 31.4842C24.6209 30.9407 24.3791 30.4338 24.011 30.0249H24.8994C25.1092 30.0249 25.3103 29.9416 25.4586 29.7933C25.6069 29.645 25.6902 29.4439 25.6902 29.2341C25.6902 29.0244 25.6069 28.8233 25.4586 28.675C25.3103 28.5267 25.1092 28.4434 24.8994 28.4434H9.73906L10.592 26.072H24.8994C25.1004 26.072 25.2961 26.0082 25.4584 25.8897C25.6207 25.7713 25.7412 25.6043 25.8024 25.413L29.7553 13.0795C29.8003 12.9411 29.8128 12.7942 29.7917 12.6502C29.7707 12.5062 29.7168 12.369 29.6341 12.2492ZM11.4611 33.1943C11.2109 33.1943 10.9664 33.1201 10.7583 32.9811C10.5503 32.8421 10.3882 32.6446 10.2925 32.4135C10.1968 32.1823 10.1717 31.928 10.2205 31.6827C10.2693 31.4373 10.3898 31.2119 10.5667 31.035C10.7436 30.8581 10.9689 30.7377 11.2143 30.6889C11.4597 30.6401 11.714 30.6651 11.9451 30.7609C12.1762 30.8566 12.3738 31.0187 12.5127 31.2267C12.6517 31.4347 12.7259 31.6793 12.7259 31.9294C12.7255 32.2647 12.5921 32.5862 12.355 32.8233C12.1179 33.0604 11.7964 33.1938 11.4611 33.1943ZM21.8964 33.1943C21.6463 33.1943 21.4017 33.1201 21.1937 32.9811C20.9857 32.8421 20.8236 32.6446 20.7279 32.4135C20.6321 32.1823 20.6071 31.928 20.6559 31.6827C20.7047 31.4373 20.8252 31.2119 21.0021 31.035C21.179 30.8581 21.4043 30.7377 21.6497 30.6889C21.895 30.6401 22.1494 30.6651 22.3805 30.7609C22.6116 30.8566 22.8091 31.0187 22.9481 31.2267C23.0871 31.4347 23.1613 31.6793 23.1613 31.9294C23.1609 32.2647 23.0275 32.5862 22.7904 32.8233C22.5532 33.0604 22.2318 33.1938 21.8964 33.1943Z" fill="#0544B8"/>
<path d="M26.5392 20.8539C32.0643 20.8539 36.5433 16.3749 36.5433 10.8498C36.5433 5.32468 32.0643 0.845703 26.5392 0.845703C21.0141 0.845703 16.5352 5.32468 16.5352 10.8498C16.5352 16.3749 21.0141 20.8539 26.5392 20.8539Z" fill="#0544B8"/>
<path d="M32.0902 7.0367C32.0246 6.97786 31.9481 6.93253 31.8651 6.90327C31.782 6.87402 31.694 6.86143 31.606 6.86621C31.518 6.871 31.4319 6.89307 31.3525 6.93117C31.2731 6.96926 31.2019 7.02263 31.1432 7.08823L25.4158 13.3905L22.2644 10.4208C22.1681 10.3284 22.0463 10.2668 21.9148 10.244C21.7832 10.2212 21.6478 10.2382 21.526 10.2928C21.4042 10.3475 21.3014 10.4372 21.231 10.5506C21.1605 10.664 21.1254 10.7959 21.1304 10.9293C21.1369 11.1042 21.2123 11.2695 21.3402 11.3892L24.9937 14.8331C25.0583 14.8947 25.1345 14.9426 25.218 14.974C25.3014 15.0055 25.3904 15.0198 25.4795 15.0161L25.5466 15.0066C25.7022 14.9833 25.8445 14.9055 25.9481 14.7871L32.1351 7.98304C32.2545 7.85154 32.3169 7.67801 32.3085 7.50058C32.3 7.32314 32.2215 7.1563 32.0902 7.0367Z" fill="white" stroke="white" stroke-width="0.4"/>
</svg>
