<svg width="16" height="16" viewBox="0 0 16 16" fill="none" xmlns="http://www.w3.org/2000/svg">
<path d="M15.7204 5.87111L15.7205 5.87138C15.7949 6.10077 15.7258 6.35118 15.5442 6.51001L15.544 6.51018L12.0534 9.57092L11.9414 9.66907L11.9744 9.81424L13.0037 14.3483C13.057 14.5836 12.9656 14.8269 12.7701 14.9686L12.7701 14.9686C12.575 15.11 12.3162 15.121 12.111 14.9976L12.1104 14.9972L8.12836 12.6164L8.00009 12.5397L7.87181 12.6164L3.88832 14.9972L3.88821 14.9973C3.79226 15.0547 3.68658 15.0831 3.58065 15.0831C3.45755 15.0831 3.3349 15.0449 3.22905 14.9684C3.03406 14.8275 2.9424 14.5845 2.99572 14.3483C2.99573 14.3482 2.99574 14.3482 2.99575 14.3482L4.02501 9.81424L4.05796 9.66909L3.94605 9.57094L0.455372 6.50959L0.454898 6.50917C0.274034 6.35136 0.205088 6.10071 0.279616 5.87151C0.354094 5.64247 0.556254 5.4807 0.795959 5.45844C0.796047 5.45843 0.796135 5.45842 0.796223 5.45841L5.41457 5.03913L5.56321 5.02563L5.62186 4.88839L7.44783 0.61527C7.44786 0.615196 7.44789 0.615122 7.44792 0.615048C7.54339 0.392664 7.75989 0.25 8.00006 0.25C8.24041 0.25 8.45702 0.392866 8.55239 0.614731L10.3783 4.88837L10.4369 5.02563L10.5856 5.03913L15.2036 5.45845L15.2037 5.45846C15.4438 5.4801 15.6464 5.64236 15.7204 5.87111Z" fill="#FFD52E" stroke="#FFA142" stroke-width="0.5"/>
</svg>
